<svg xmlns="http://www.w3.org/2000/svg" width="260" height="175" viewBox="0 0 260 175">
    <g fill="none" fill-rule="nonzero">
        <path fill="none" d="M260 174.91H0V0h260z"/>
        <path fill="#6747C7" d="M40.066 143.945h167.988c27.735-16.129 22.731-49.14 15.045-54.692-10.509-7.592-26.998 20.985-37.28 15.766-29.372-14.915 31.704-56.919 7.092-66.655-16.016-6.332-27.14 42.123-46.668 25.201-10.164-8.804-.931-21.622-2.877-32.022-3.072-16.503-29.696-8.037-53.054 33.256-9.844 17.406-23.343-15.104-34.35-18.923C45.741 42.33 14.89 58.35 46.8 94.432c10.164 11.485-39.924 16.32-6.734 49.513z" opacity=".05"/>
        <path fill="#6747C7" d="M96.29 32.618c-.156-1.418-.567-2.375-1.546-2.905-2.9-1.574-10.178.979-13.206 4.917-4.219 5.488-.37 13.93 3.73 14.47 4.77.633 11.83-9.183 11.022-16.482z" opacity=".05"/>
        <path fill="#32454C" d="M83.595 147.489h50.379v1H83.595zM64.407 151.091h31.588v1H64.407zM109.257 151.091h41.68v1h-41.68zM54.307 147.545h15.089v1H54.307zM141.899 147.489h30.55v1h-30.55zM23.549 143.707h212.347v1H23.549z"/>
        <path fill="#32454C" d="M202.663 143.707h2.172v1h-2.172zM181.898 143.707h18.987v1h-18.987zM73.013 143.707h27.733v1H73.013zM127.967 143.707h11.672v1h-11.672zM144.907 143.707h9.445v1h-9.445z"/>
        <path fill="#402885" d="M117.941 98.462h-11.345v-1.418h11.345z"/>
        <path fill="#32454C" d="M159.491 107.919l10.386 35.788h1.194l-8.493-35.788zM148.63 107.919l-10.386 35.788h-1.193l8.492-35.788z"/>
        <circle cx="154.059" cy="102.811" r="17.491" fill="#402885"/>
        <path fill="#32454C" d="M152.483 120.47a17.533 17.533 0 0 1-4.794-1.111l.168-.44c1.499.576 3.07.94 4.668 1.08l-.042.47zM154.06 120.545v-.472c9.034-.024 16.53-6.995 17.21-16.004l.472.035c-.699 9.256-8.4 16.417-17.683 16.441zM171.787 102.818h-.473a17.205 17.205 0 0 0-2.7-9.27l.4-.253a17.675 17.675 0 0 1 2.773 9.523zM167.45 91.931a17.002 17.002 0 0 0-1.364-1.491l.328-.34c.497.483.966.994 1.404 1.531l-.369.3zM83.942 98.464l-.248 2.364-4.701 42.879h-1.194l3.529-45.243zM206.241 98.464l.249 2.364 4.7 42.879h1.195l-3.53-45.243z"/>
        <circle cx="152.504" cy="101.336" r="5.495" fill="#FF95A9"/>
        <circle cx="144.347" cy="84.006" r="3.073" fill="#FF95A9"/>
        <path fill="#6747C7" d="M158.737 84.145l-.794 17.189H146.95l-4.54-18.049a1.89 1.89 0 0 1 1.83-2.352h11.427a3.073 3.073 0 0 1 3.07 3.212z"/>
        <circle cx="144.347" cy="84.006" r="3.073" fill="#6747C7"/>
        <path fill="#FF95A9" d="M147.018 101.336h10.991l.593.461a8.185 8.185 0 0 1 3.153 6.458v2.363a3.31 3.31 0 0 1-3.309 3.31h-9.537a3.31 3.31 0 0 1-3.309-3.31v-3.23c.002-2.1.487-4.17 1.418-6.052z"/>
        <circle cx="155.679" cy="84.006" r="3.073" fill="#6747C7"/>
        <circle cx="161.755" cy="96.269" r="2.234" fill="#FF5C62"/>
        <path fill="#FDD4C6" d="M146.284 74.813l5.177-.485.598 6.375-5.178.485z"/>
        <path fill="#FDD4C6" d="M152.065 80.69a2.6 2.6 0 1 1-5.178.487 2.6 2.6 0 0 1 5.178-.487z"/>
        <circle cx="153.58" cy="74.61" r="3.701" fill="#32454C" transform="rotate(-49.93 153.58 74.61)"/>
        <path fill="#32454C" d="M139.268 71.089a8.169 8.169 0 1 1 8.894 7.37l-4.533-3.756a4.018 4.018 0 0 1-4.361-3.614z"/>
        <path fill="#FDD4C6" d="M151.672 73.982l-1.182.11-.22-2.363 1.182-.108c.65-.06 1.225.416 1.286 1.066a1.182 1.182 0 0 1-1.066 1.295z"/>
        <path fill="#FDD4C6" d="M141.953 68l8.847-.83 1.07 11.416-5.492.515a3.831 3.831 0 0 1-4.189-3.701l-.236-7.4z"/>
        <path fill="#32454C" d="M151.216 71.644l.236-.021-.638-6.798-7.003.648a3.368 3.368 0 0 0-3.038 3.663l.015.135.236-.024a9.254 9.254 0 0 1 5.727 1.343 7.22 7.22 0 0 0 4.467 1.047l-.002.007z"/>
        <path fill="#DFDFE2" d="M78.99 98.464h132.203v2.364H78.99z"/>
        <path fill="#32454C" d="M78.99 98.464h132.203v2.364H78.99z"/>
        <path fill="#6747C7" d="M158.513 82.815l5.301 12.588-3.997 1.976-6.805-11.846z"/>
        <path fill="#402885" d="M91.225 70.257h33.051v22.377H91.225z" opacity=".3"/>
        <path fill="#402885" d="M111.058 98.464h-8.982l.71-18.28h7.563z"/>
        <circle cx="106.567" cy="87.079" r="2.009" fill="#DDD6FF"/>
        <path fill="#FFF" d="M106.567 89.324a2.205 2.205 0 0 1-.976-.236l.205-.426c.24.118.504.179.77.178a1.773 1.773 0 0 0 1.452-2.78l.388-.272a2.248 2.248 0 0 1-1.839 3.536z"/>
        <path fill="#6747C7" d="M141.457 82.964l-4.515 12.548 4.091 1.768 6.054-11.882z"/>
        <circle cx="145.591" cy="91.135" r="3.073" fill="#6747C7"/>
        <path fill="#FFF" d="M145.6 94.444a3.33 3.33 0 0 1-2.995-1.891l.428-.201a2.855 2.855 0 0 0 2.567 1.62v.472z"/>
        <path fill="#FFF" d="M143.638 93.806a3.33 3.33 0 0 1-1.347-2.674c0-.373.064-.744.189-1.096l.026-.074.447.154-.026.076a2.775 2.775 0 0 0-.163.945 2.855 2.855 0 0 0 1.163 2.293l-.289.376z"/>
        <path fill="#FDD4C6" d="M148.65 95.61a1.182 1.182 0 1 1 1.941-1.348 1.182 1.182 0 0 1-1.942 1.347z"/>
        <path fill="#6747C7" d="M159.564 95.834a2.234 2.234 0 1 0 4.384.86 2.234 2.234 0 0 0-4.384-.86z"/>
        <path fill="#6747C7" d="M161.805 94.037l-12.16-.288-.258 2.34 11.934 2.37z"/>
        <path fill="#FDD4C6" d="M152.743 96.755l-3.356-.666.255-2.34 3.42.083z"/>
        <circle cx="135.514" cy="141.579" r="1.536" fill="#32454C"/>
        <path fill="#32454C" d="M147.018 101.336h10.991l.593.461a8.185 8.185 0 0 1 3.153 6.458v2.363a3.31 3.31 0 0 1-3.309 3.31h-9.537a3.31 3.31 0 0 1-3.309-3.31v-3.23c.002-2.1.487-4.17 1.418-6.052z"/>
        <circle cx="148.902" cy="110.623" r="3.309" fill="#32454C"/>
        <circle cx="158.446" cy="110.623" r="3.309" fill="#32454C"/>
        <circle cx="131.922" cy="111.247" r="2.673" fill="#32454C"/>
        <path fill="#32454C" d="M134.588 111.03l2.456 30.424-3.05.364-4.713-30.155z"/>
        <circle cx="144.907" cy="141.579" r="1.536" fill="#32454C"/>
        <circle cx="141.317" cy="111.247" r="2.673" fill="#32454C"/>
        <path fill="#32454C" d="M143.98 111.03l2.46 30.424-3.05.364-4.715-30.155z"/>
        <path fill="#32454C" d="M148.651 107.323l-16.93 1.258.2 5.34 16.979.011z"/>
        <path fill="#FF95A9" d="M129.111 96.49a1.182 1.182 0 1 1 2.141-1 1.182 1.182 0 0 1-2.14 1z"/>
        <path fill="#FDD4C6" d="M127.235 95.12a1.629 1.629 0 0 0-.523.144 1.655 1.655 0 1 0 1.397 3l2.567-1.204-.629-2.245-2.812.305z"/>
        <path fill="#6747C7" d="M136.836 95.935a2.234 2.234 0 1 0 4.413.692 2.234 2.234 0 0 0-4.413-.692z"/>
        <path fill="#FF5C62" d="M138.847 94.044l-8.769.769-.073 2.344 8.703 1.32z"/>
        <path fill="#6747C7" d="M138.71 98.476l-8.705-1.319.073-2.347 1.416-.123 7.35-.643z"/>
        <path fill="#FDD4C6" d="M131.409 97.37l-1.404-.213.073-2.347 1.416-.123zM146.564 94.579a1.655 1.655 0 1 0 1.4 2.945l2.323-1.624-1.004-2.106-2.719.785z"/>
        <path fill="#6747C7" d="M133.978 141.582h3.073v2.127h-4.307a.657.657 0 0 1-.657-.66c0-.235.125-.453.329-.571l1.562-.896zM143.371 141.582h3.073v2.127h-4.307a.66.66 0 0 1-.657-.66c0-.236.126-.454.331-.571l1.56-.896zM46.672 66.35c-.695 3.221-1.86 6.322-2.789 9.483-.945 3.254-1.924 6.563-1.912 9.955a17.77 17.77 0 0 0 4.796 12.003c1.182 1.255 2.572 2.363 3.486 3.822.915 1.458 1.25 3.481.237 4.876-1.473 2.014-4.624 1.576-6.777 2.836-2.711 1.584-3.09 5.619-1.543 8.351 1.545 2.732 8.587 10.551 18.632 8.615 4.491-.867 10.59-5.145 10.417-9.721-.182-4.765-4.728-8.623-4.576-13.388.101-3.122 2.2-5.76 4.018-8.3 1.818-2.542 3.51-5.638 2.673-8.647-1.231-4.43-6.935-5.798-9.69-9.474-1.78-2.363-2.173-5.48-2.282-8.44-.108-2.96-.035-5.99-1.023-8.781-2.411-6.774-10.908-5.966-13.667 6.81z"/>
        <path fill="#32454C" d="M56.994 83.375h1v51.35h-1z"/>
        <path fill="#32454C" d="M57.465 98.214l-.473-.078c.766-4.645 6.049-7.535 6.273-7.656l.222.418c-.047.029-5.297 2.9-6.022 7.316zM56.997 118.435c-.518-3.142-4.255-5.188-4.297-5.2l.224-.416c.163.087 3.985 2.177 4.54 5.545l-.467.07z"/>
        <path fill="#402885" d="M48.69 132.952h17.02v4.905a5.85 5.85 0 0 1-5.86 5.852H54.53a5.85 5.85 0 0 1-5.84-5.852v-4.905z"/>
        <path fill="#32454C" d="M51.702 143.236a6.075 6.075 0 0 1-3.247-5.38v-1.803h.472v1.804a5.602 5.602 0 0 0 3.004 4.963l-.229.416zM48.681 134.489h17.018v1H48.681zM54.858 132.716h10.84v1h-10.84zM57.401 143.707h10.901v1H57.401z"/>
        <circle cx="102.295" cy="122.818" r="4.559" fill="#32454C" transform="rotate(-80.78 102.295 122.818)"/>
        <path fill="#32454C" d="M102.289 127.608a4.798 4.798 0 1 1-.005-9.596 4.798 4.798 0 0 1 .005 9.596zm0-9.121a4.325 4.325 0 1 0-.005 8.65 4.325 4.325 0 0 0 .005-8.65z"/>
        <circle cx="96.463" cy="124.374" r="3.281" fill="#32454C" transform="rotate(-22.5 96.463 124.374)"/>
        <path fill="#32454C" d="M96.462 127.894a3.52 3.52 0 1 1 0-7.039 3.52 3.52 0 0 1 0 7.039zm0-6.564a3.047 3.047 0 1 0 0 6.094 3.047 3.047 0 0 0 0-6.094z"/>
        <path fill="#6747C7" d="M108.307 123.285l-.31 2.38-.06.473-.84 6.495-1.026 7.902-.102.79-.31 2.382h-13.3l-.31-2.383-.061-.473-.745-5.748-1.162-8.965-.06-.473-.31-2.38z"/>
        <path fill="#402885" d="M107.096 132.633l-1.025 7.902-.102.79-.31 2.382h-13.3l-.31-2.383-.061-.473-.745-5.748z"/>
        <path fill="#32454C" d="M94.082 141.067l-.47.042-.024-.258-1.357-14.713-.018-.215.472-.043.024.258 1.354 14.713zM94.836 125.918l.472-.026.836 15.187-.472.026zM97.47 125.903l.472-.008.276 15.186-.473.008zM99.964 141.262l.304-15.189.472.01-.303 15.188zM101.864 141.063l.847-15.186.472.026-.847 15.186zM105.815 125.923l-.019.215-1.366 14.713-.023.258-.47-.042.018-.216 1.366-14.713.024-.258z"/>
        <path fill="#32454C" d="M90.021 125.665l.06.473h17.857l.059-.473H90.02zm16.007 15.186h-14.04l.061.473h13.92l.102-.79v-.011l-.043.328zM89.712 123.049h6.907v1h-6.907z"/>
        <path fill="#402885" d="M103.662 143.707h7.424v1h-7.424z"/>
        <path fill="#32454C" d="M90.775 143.707h3.765v1h-3.765zM110.11 80.198l.472-.018.355 9.14-.473.019zM110.548 91.5l.472-.018.086 2.205-.473.019z"/>
        <path fill="#FFF" d="M102.312 98.474l-.47-.02.716-18.506h4.009v.472h-3.553zM107.326 79.948h1v1h-1zM91.007 85.46l-.019-15.442 24.334.054v.473l-23.861-.052.019 14.964z"/>
        <path fill="#32454C" d="M78.99 100.592h27.579v1H78.99zM110.349 100.592h1.919v1h-1.919z"/>
        <path fill="#402885" d="M115.953 100.592h24.896v1h-24.896z"/>
        <path fill="#32454C" d="M142.556 100.592h31.384v1h-31.384zM180.986 100.592h30.207v1h-30.207z"/>
        <path fill="#FFF" d="M181.603 85.909h1v2.08h-1zM142.786 89.11l1.185-3.37.446.158-1.185 3.369zM158.264 94.198l-5.207-.13.012-.473 4.366.109-1.664-2.893.411-.236z"/>
        <path fill="#6747C7" d="M121.855 73.458l3.712-.75.598 2.963-3.711.75zM122.12 77.775h3.787v3.023h-3.787z"/>
        <path fill="#402885" d="M122.854 81.913l3.749.568-.454 2.993-3.748-.568z"/>
        <path fill="#32454C" d="M166.253 124.429l.46-.11 4.588 19.332-.46.11zM210.71 125.401l.471-.036.1 1.291-.47.037zM210.972 128.622l.47-.037 1.179 15.103-.471.037zM165.785 98.266h25.941v1h-25.941z"/>
        <path fill="#FFF" d="M146.22 75.596a1.305 1.305 0 0 1-2.6.237l2.6-.237zM121.621 73.509l.464-.094.598 2.963-.463.094zM121.883 77.775h1v3.023h-1zM122.035 84.746l.453-2.989.468.07-.453 2.99z"/>
    </g>
</svg>
