<svg xmlns="http://www.w3.org/2000/svg" width="260" height="175" viewBox="0 0 260 175">
    <g fill="none" fill-rule="evenodd">
        <path fill="#FFF" fill-rule="nonzero" d="M0 0h259.447v174.514H0z"/>
        <g fill-rule="nonzero">
            <path fill="#6747C7" d="M39.517 143.32h167.988c27.735-16.13 22.732-49.14 15.045-54.693-10.509-7.592-26.997 20.985-37.28 15.766-29.372-14.915 31.704-56.919 7.092-66.655-16.016-6.332-27.14 42.123-46.668 25.201-10.164-8.804-.931-21.622-2.877-32.022-3.072-16.503-29.696-8.036-53.054 33.256C79.92 81.58 66.42 49.07 55.413 45.25c-10.22-3.545-41.071 12.475-9.162 48.556 10.164 11.485-39.924 16.321-6.734 49.514z" opacity=".05"/>
            <path fill="#32454C" d="M83.046 146.863h50.379v1H83.046zM63.858 150.465h31.588v1H63.858zM108.708 150.465h41.68v1h-41.68zM53.758 146.919h15.089v1H53.758zM23 143.081h212.347v1H23z"/>
        </g>
        <path fill="#32454C" d="M154.47 79.423H129.38a1.1 1.1 0 0 1-1.1-1.1l-1-19.132a1.1 1.1 0 0 1 1.1-1.1h25.092a1.1 1.1 0 0 1 1.1 1.1l1 19.132a1.1 1.1 0 0 1-1.1 1.1"/>
        <path fill="#6747C7" d="M153.393 76.884H130.53a1.1 1.1 0 0 1-1.1-1.1l-1-15.469a1.1 1.1 0 0 1 1.1-1.1h22.864a1.1 1.1 0 0 1 1.1 1.1l1 15.47a1.1 1.1 0 0 1-1.1 1.1"/>
        <path fill="#FFF" d="M132.808 73.811l9.113-.06a.858.858 0 0 0 .851-.892l-.513-11.43a.858.858 0 0 0-.862-.822l-9.113.06a.857.857 0 0 0-.851.893l.513 11.429c.019.461.4.825.862.822"/>
        <path fill="#FFF" d="M139.646 75.799l10.79-.121c.575-.007 1.035-.348 1.015-.753l-.518-10.602c-.02-.386-.468-.687-1.015-.68l-10.79.12c-.575.007-1.035.348-1.015.753l.519 10.602c.019.386.467.687 1.014.68"/>
        <path fill="#1F2144" d="M141.162 67.962c-1.367.031-6.809.03-8.175.061-.129.003-.124.203.005.2 1.366-.032 6.808-.03 8.174-.061.13-.004.125-.203-.004-.2m-.079-1.634c.129-.003.124-.203-.005-.2-1.366.032-6.808.03-8.174.062-.13.003-.125.203.004.2 1.367-.032 6.809-.03 8.175-.062m-.138-1.916c-1.366.031-6.808.03-8.175.061-.128.003-.124.203.005.2 1.366-.032 6.809-.03 8.175-.061.128-.004.124-.203-.005-.2m-.079-1.634c.13-.003.125-.203-.004-.2-1.367.032-6.809.03-8.175.062-.129.003-.124.203.005.2 1.366-.032 6.808-.03 8.174-.062M142.578 65.3c2.135-.017 5.844-.021 6.938-.047.13-.003.125-.203-.004-.2-1.1.026-4.835.03-6.965.047.013.065.023.132.031.2M149.595 66.887c-1.11.025-4.906.029-7.025.046.016.066.029.133.04.2 2.126-.017 5.886-.02 6.99-.046.128-.004.124-.203-.005-.2M149.728 68.603c-1.115.026-4.943.03-7.056.047.013.066.023.133.031.2 2.119-.018 5.92-.021 7.03-.047.129-.003.124-.203-.005-.2"/>
        <path fill="#78ADD9" d="M143.018 73.77c-.088-1.365-.428-10.093-.516-11.456-.008-.129-.208-.116-.2.012.087 1.336.414 9.73.51 11.357-1.62.061-9.483.19-10.819.249-.129.005-.12.205.009.2 1.365-.06 9.557-.194 10.922-.253a.091.091 0 0 0 .088-.067.105.105 0 0 0 .006-.043"/>
        <path fill="#32454C" d="M146.998 79.548h-24.55a2.4 2.4 0 0 1 2.4-2.4h19.75a2.4 2.4 0 0 1 2.4 2.4"/>
        <path fill="#FDD4C6" d="M95.466 46.59c.032-.394-.234-.764-.398-1.098a18.96 18.96 0 0 1-.705-1.63c-.245-2.343-.67-4.512-.997-5.459-3.573-.592-7.718-.024-11.494-.008-.061 0-.122-.005-.182-.01-1.69 1.95-1.322 3.487-.672 6.381.783 3.489 2.908 5.989 5.978 7.774 1.724 1.003 4.806.84 6.526-.664.745-.653 1.023-2.372 1.038-4.39.454-.171.869-.423.906-.897"/>
        <path fill="#FDD4C6" d="M82.44 58.463c.457.604 1.783.428 2.43.478.593.046.516.098 1.108.144.463.036 1.22.24 1.666.129.66-.165.65.743.882.176.89-2.185 1.402-6.635 1.788-8.943.061-.363-.199-.596-.48-.641a.581.581 0 0 0-.157-.071c-1.973-.537-3.254-1.129-4.734-2.613-.29-.292-1.45-1.879-1.516-1.487l-.84 10.435c-.102.605-.591 1.806-.147 2.393"/>
        <path fill="#32454C" d="M95.042 40.467c-.119-.236-.278-.437-.352-.694-.074-.262-.04-.527-.074-.795a2.537 2.537 0 0 0-1.657-2.037c-.413-.142-.88-.112-1.26-.342-.353-.213-.544-.603-.86-.86-.286-.233-.641-.38-.987-.495a4.899 4.899 0 0 0-3.251.07c-.45.171-.883.437-1.372.477-.524.042-1.035-.138-1.563-.083-.43.045-.849.18-1.236.368-.75.365-1.366.93-1.942 1.522a.1.1 0 0 0-.038.017c-.32.234-.322.585-.399.946-.115.54-.64.835-.915 1.3-.484.817-.553 1.879-.156 2.745.104.227.277.41.387.63.193.384.132.76.172 1.17.058.607.242 1.198.5 1.748.573 1.215 1.986 3.727 2.894 4.697.034.036.075.033.108.01 1.74 1.62 5.686 1.085 5.84-1.61.08-1.4-.405-2.49 1.122-3.334.581-.32 1.043-.593 1.387-1.19.414-.718.501-1.55.498-2.365v-.007c.482.082 1.006.181 1.404-.045.808.379 1.85-.094 1.916-1.108a1.376 1.376 0 0 0-.166-.735M109 137.556l-1.996-.131 10.783-55.66 1.995.133zM184.337 136.821l1.996-.131-10.558-55.024-1.995.132z"/>
        <path fill="#32454C" d="M106.05 86.864h80.736v-7.466h-80.737z"/>
        <path fill="#FDD4C6" d="M133.606 130.1c.566.115.38-.033.815.398a.579.579 0 0 1 .137.23c.314.015.602.224.566.627-.291 3.275-.135 6.574-.55 9.84-.054.417-.383.718-.82.609-.797-.2-.541-.212-1.29-.544-.2-.089-.507-1.371-.502-1.576.04-1.667.344-7.292.543-8.964.051-.434.664-.71 1.1-.62"/>
        <path fill="#1F2144" d="M131.372 140.498c.12-1.898.145-1.948.482-1.917.785.071 2.69.012 3.545.013.379.025.508.271.49.397-.132.98.771.965 1.968 1.566 1.02.512 2.003.948 3.633 1.432 1.45.432 1.303.197 1.314 1.127.008.667-1.485.557-2.697.488a43.38 43.38 0 0 0-.57-.028 5.539 5.539 0 0 1-1.672-.339l-.293-.11c-.894-.335-1.706-.427-2.659-.409-.046.001-.103.032-.111.082-.017.1-.021.155-.034.254a.346.346 0 0 1-.358.298 68.53 68.53 0 0 1-1.178-.056c-.744-.043-1.741-.068-1.853-.256-.125-.21-.07-.247-.064-.458.014-.571.017-1.444.057-2.084"/>
        <path fill="#464A8A" d="M135.608 140.393c.244-.19.5-.361.768-.515.112-.064-.007-.225-.117-.162a6.554 6.554 0 0 0-.768.515c-.102.08.016.241.117.162m.955.55c-.063.112.108.216.171.104a6.57 6.57 0 0 1 .51-.772c.079-.102-.093-.204-.17-.103a6.57 6.57 0 0 0-.51.77m.95.45c-.06.113.11.217.172.103.14-.26.275-.523.405-.789.056-.115-.114-.22-.17-.104-.13.266-.266.53-.406.79M131.266 142.68c.004-.17.017-.36.037-.558.912.184 2.127.158 3.053.137.915-.02 1.798.04 2.697.21 1.904.358 3.768.56 5.702.434v.311c.008.667-1.485.557-2.697.488-.19-.01-.38-.02-.57-.028a5.53 5.53 0 0 1-1.672-.339l-.294-.11c-.894-.335-1.705-.427-2.658-.409-.046.001-.103.032-.112.082-.016.1-.02.155-.033.254a.346.346 0 0 1-.358.298c-.39-.016-.783-.033-1.178-.056-.745-.043-1.741-.068-1.854-.256-.125-.21-.068-.247-.063-.458"/>
        <path fill="#402885" d="M84.878 90.69c.76-.521 2.019-.507 2.906-.614a43.988 43.988 0 0 1 7.853-.239c4.982.293 11.461 3.155 11.475 3.289 4.298.411 11.867 1.175 16.162 1.625 2.242.235 4.485.469 6.724.738 1.601.192 5.863 1.103 7.967 4.241 1.022 1.526 1.459 3.356 1.746 5.15.33 2.064.368 4.197.147 6.275-.11 1.037-.297 2.062-.475 3.088l-3.042-1.085c-.206.22-.504.332-.837.194l-3.569-1.483a50.596 50.596 0 0 0-1.766-.62c-.004 0-.007.003-.011.003-.436.13-.842.137-1.228 0-.036.168-.07.337-.1.508l-.302-.025c-10.104-.812-20.215-1.55-30.321-2.343-2.067-.162-4.174-.346-6.115-1.126-1.735-.699-3.185-1.879-4.32-3.358-2.594-3.382-3.192-7.735-3.55-11.86-.074-.858-.145-1.811.656-2.359"/>
        <path fill="#FDD4C6" d="M147.945 116.315c.526-.24.289-.25.894-.156a.573.573 0 0 1 .246.106c.262-.172.619-.173.826.175 1.686 2.823 3.749 5.402 5.33 8.29.2.369.111.807-.307.975-.762.306-.563.146-1.364.316-.213.046-1.215-.812-1.33-.98-.946-1.375-4.002-6.107-4.822-7.578-.213-.381.12-.964.527-1.148"/>
        <path fill="#1F2144" d="M153.011 127.162c-1.273-1.413-1.29-1.466-1.033-1.686.6-.511 1.89-1.913 2.488-2.525.283-.252.55-.173.627-.072.608.78 1.229.123 2.496-.312 1.08-.37 2.078-.768 3.564-1.595 1.322-.735 1.052-.794 1.724-.151.482.46-.64 1.451-1.537 2.269-.141.129-.28.258-.419.388-.417.39-.894.713-1.41.958l-.285.133c-.865.404-1.498.92-2.152 1.614-.03.033-.049.096-.019.137.06.082.096.123.158.202.11.14.092.342-.037.464a68.65 68.65 0 0 1-.864.803c-.55.502-1.266 1.197-1.48 1.146-.236-.057-.224-.124-.371-.275-.399-.41-1.02-1.022-1.45-1.498"/>
        <path fill="#464A8A" d="M155.556 124.068c.035-.307.091-.61.17-.91.032-.124-.167-.151-.199-.028-.078.3-.134.602-.169.909-.014.128.183.157.198.029m1.06-.298c.037.124.23.074.194-.05a6.586 6.586 0 0 1-.194-.904c-.018-.127-.212-.076-.194.05.044.306.109.607.195.904m.986-.367c.038.123.232.073.194-.05a23.982 23.982 0 0 0-.28-.84c-.044-.122-.238-.073-.195.049.1.278.193.56.281.841M154.46 128.664a7.73 7.73 0 0 1-.372-.416c.769-.524 1.6-1.41 2.234-2.087a12.884 12.884 0 0 1 2.035-1.78c1.588-1.111 3.035-2.302 4.298-3.773l.222.217c.483.461-.64 1.452-1.537 2.27-.141.128-.28.258-.419.387-.417.391-.894.713-1.41.958l-.285.134c-.865.404-1.498.92-2.151 1.614-.032.033-.05.096-.02.137.06.081.096.122.158.202.11.14.092.341-.037.463-.285.269-.571.537-.864.803-.551.503-1.266 1.197-1.48 1.146-.236-.057-.224-.124-.371-.275"/>
        <path fill="#402885" d="M154.466 120.116c-4.412-6.465-16.587-24.552-17.67-25.891-2.242-2.772-5.178-4.09-8.727-4.156-3.862-.073-7.796.344-11.64.689-3.86.346-7.662.893-11.327 2.199-1.565.557-.89 3.07.69 2.507.301-.107.603-.207.905-.304.01.208.065.41.167.578.958 1.568 2.747.596 4.153.408 1.787-.24 3.629-.084 5.41.13 2.696.326 5.37.79 8.068 1.008.879.692 1.684 1.553 2.172 2.653.631 1.422.777 3.282 1.574 4.62.345.578.844.96 1.366 1.354.73.55 1.16 1.09 1.533 1.956.518 1.202 1.057 2.257 2.15 3.004.977.667 2.536.712 3.313 1.637.533.636.507 1.53.785 2.288.167.456.414.853.736 1.21 1.34 1.479 6.591 5.927 7.353 7.927.075.197.283.355.495.326 3.078-.43 5.45-2 8.141-3.358.316-.16.585-.446.353-.785"/>
        <path fill="#402885" d="M129.748 134.74c2.889.152 5.36.328 7.918.387.558.013 1.161-.13 1.206-.76.404-5.722 1.078-11.3 1.233-17.041.144-5.314.784-13.863-2.666-18.134-.729-.902-2.878 2.849-2.15 3.75 1.986 2.458-1.935 4.944-4.873 5.696-3.125.8-3.443 4.152-2.746 6.792.46 1.735 1.003 3.277.66 5.093-.287 1.513-.86 2.96-.85 4.521.014 2.83 2.007 5.677 1.274 8.499-.169.651.273 1.159.994 1.197"/>
        <path fill="#6747C7" d="M82.616 56.565c-3.787-.887-7.774-.25-11.067 1.832-.885.559-1.73 1.174-2.661 1.656-1.001.519-2.06.914-3.097 1.352-.982.416-1.944.881-2.807 1.482-.454.218-.824.404-1.084.546-1.529.833-2.564 1.835-2.838 3.62-.235 1.526.176 3.24 1.678 3.95 1.761.83 3.83-.114 5.532-.644 4.4-1.37 5.945-1.652 10.228-3.356 1.055-.42 2.088-.896 3.059-1.487.727-.442 1.576-.98 1.78-1.871.216-.936-.392-1.843-.83-2.614a57.12 57.12 0 0 0-1.788-2.93c.242-.022.486-.042.73-.056.289-.016.416-.277.38-.497.91-.055 1.812-.104 2.679-.197.416-.046.58-.675.106-.786"/>
        <path fill="#FDD4C6" d="M126.414 77.844c.053-.21-.838-.51-1.04-.587-3.715-1.405-6.844-2.604-10.658-3.706-3.513-1.015-4.953-3.42-7.546-6.1-.359-.37-.919.201-.56.571l.084.083c-1.337.727-3.069 2.251-1.728 3.804.72.835.589.556 1.544 1.064 1.104.586 1.584 2.994 2.746 3.454 5.147 2.037 10.882 2.182 16.352 2.818.215.025.427-.057.486-.29.221-.875.099-.236.32-1.111"/>
        <path fill="#6747C7" d="M115.372 71.725c-.222-.79-1.533-.866-2.6-1.666-1.215-.912-6.337-5.243-8.448-6.799-3.09-2.277-5.59-5.058-9.218-6.435-1.014-.384-2.792-.272-5.07-.37l-.257-1.089a.406.406 0 0 0-.386-.294c-1.94-.01-3.879-.273-5.82-.176-.496.024-1.276-.033-1.724.276-.398.276-.67.848-.901 1.354-.461.035-.891.076-1.262.126-1.644.22-3.345.563-4.697 1.584-3.013 2.274-2.902 7.1-2.083 10.39 1.079 4.336 1.987 5.3 3.27 9.58 1.186 3.95 2.06 8.027 4.535 11.402 1.075 1.468 2.15 2.967 3.943 3.58 1.673.572 3.494.423 5.219.227 2.22-.252 4.417-.464 6.656-.392 1.659.054 6.645.426 6.91.472 1.167.202 2.618-.276 2.708-1.648.043-.659-.357-1.13-.711-1.642-.467-.674-.775-1.417-.999-2.203-.431-1.516-.576-3.098-1.033-4.608-.498-1.649-1.402-3.118-2.077-4.692-.976-2.277-1.188-3.323-1.188-5.743 6.228 6.194 12.733 6.373 13.219 5.596.305-.487.395-1.224.562-1.77l.569-1.868c.19-.622.321-.829.51-1.451.157-.511.527-1.193.373-1.74"/>
        <path fill="#FDD4C6" d="M130.802 77.536c-.9-.463-1.887-.172-3.671-.087-.87.04-2.251.075-3.728-.232.102.61-.095 1.087-.363 1.636-.02.04-.046.08-.069.12.947.153 1.872.266 2.425.256.152.353 1.208.378 2.049.12.588-.182 1.17.017 1.717.232.148.156.295.331.45.528.346.442.612.952 1.231.796.191-.048.298-.239.176-.415-.334-.488-.629-.974-.942-1.408.195.098.472.1.669.197.292.145.724.492.95.46.243-.034.325-.177.323-.32.136.109.27.217.402.32.162.124.379.024.418-.166.174-.836-1.453-1.736-2.037-2.037"/>
        <path fill="#32454C" d="M91.905 137.516l-1.917-30.923-1.996.132 1.91 30.797zM79.539 88.06l15.337-.074a7.056 7.056 0 0 1 7.075 6.602l.98 15.226-1.996.131-.858-13.336c-.249-5.357-2.815-6.657-7.069-6.603l-13.458.054-.011-2z"/>
        <path fill="#32454C" d="M86.077 110.12l1.995-.131-2.581-39.835-1.996.132zM69.077 109.92l1.995-.131-2.626-39.495-1.165.077a.832.832 0 0 0-.776.886l2.572 38.663zM101.028 137.786a1 1 0 0 0-1-1H81.595a1 1 0 1 0 0 2h18.433a1 1 0 0 0 1-1M97.037 141.536a1.95 1.95 0 1 0 3.9 0 1.95 1.95 0 0 0-3.9 0M81.137 141.47a1.95 1.95 0 1 0 3.9 0 1.95 1.95 0 0 0-3.9 0"/>
        <path fill="#32454C" d="M69.942 110.52c1.866-.076 5.31-.02 8.028-.105 2.945-.092 24.237-.149 30.193-.046.543.05.87-.066.874-.354v-.002a.311.311 0 0 0 .003-.128c.017-1.16.047-2.32.048-3.48 0-.8-.056-1.612-.569-2.295-.906-1.209-2.665-1.541-4.17-1.697-5.19-.537-26.835-.305-30.427.067-1.505.156-3.264.488-4.17 1.697-.512.683-.568 1.495-.568 2.295 0 1.096.026 2.192.044 3.288-.101.121.157.747.714.76M69.181 93.84h17.823c1.661 0 2.945-1.799 2.736-3.833l-.984-17.439c-.175-1.7-1.347-2.976-2.736-2.976H68.197c-1.66 0-2.945 1.8-2.736 3.834l.984 17.439c.175 1.7 1.347 2.976 2.736 2.976"/>
        <path fill="#1F2144" d="M140.118 117.172c-2.586-.79-3.66-3.476-4.775-5.678a17.957 17.957 0 0 0-2.033-3.179c-.804-.997-1.767-1.826-2.629-2.767-.95-1.04-1.5-2.247-1.93-3.575-.354-1.094-.651-2.212-1.166-3.245-.452-.91-1.076-1.759-1.947-2.304-1.04-.651-2.296-.802-3.483-.99l-9.816-1.55c-.126-.02-.18.173-.053.193l8.736 1.38c1.344.212 2.824.306 4.07.897 1.117.53 1.868 1.52 2.388 2.613 1.052 2.21 1.261 4.7 2.944 6.594.847.952 1.823 1.774 2.635 2.76.85 1.032 1.552 2.162 2.152 3.353 1.125 2.236 2.24 4.893 4.854 5.691.123.038.176-.156.053-.193M129.147 92.967l-2.31 2.39c-.089.093.052.235.142.142l2.31-2.39c.09-.093-.052-.235-.142-.142M129.153 94.671c-.632.672-1.305 1.3-2.019 1.883-.1.082.043.222.142.142a21.085 21.085 0 0 0 2.018-1.883c.088-.094-.053-.236-.141-.142"/>
        <path fill="#1F2144" d="M126.707 105.898c-.027-.126-.22-.073-.193.053.23 1.082.406 2.171.525 3.271.013.127.214.128.2 0a33.037 33.037 0 0 0-.532-3.324"/>
        <path fill="#402886" d="M100.146 73.395l-.002-.27c-1.86-1.68-3.647-3.447-5.074-5.513-.877-1.27-1.616-2.646-2.11-4.111-.538-1.597-.872-3.398-.452-5.06a5.364 5.364 0 0 1 .907-1.895 19.916 19.916 0 0 0-.238-.012 5.616 5.616 0 0 0-.56.977c-.648 1.47-.572 3.124-.235 4.662.718 3.27 2.683 6.11 4.95 8.51.896.947 1.845 1.84 2.814 2.712M90.211 56.466c-1.302.556-2.727.776-4.153.788-.968.008-1.935-.073-2.897-.184-.715-.083-1.62-.163-2.15-.67l-.06.13-.075.006c.332.316.793.5 1.265.592 1.086.215 2.232.292 3.337.32 1.778.047 3.581-.191 5.18-.967l-.447-.015M77.852 56.245c-1.929 1.324-3.428 3.23-4.313 5.404-.873 2.14-1.112 4.475-.834 6.753l.195-.065c-.26-2.188-.04-4.426.775-6.495.906-2.301 2.514-4.305 4.592-5.634-.138.01-.277.023-.415.037"/>
        <path fill="#6747C7" d="M176.862 61.385c-1.139 2.341-2.605 6.249-.866 7.806 1.508 1.35 7.265-.983 9.627-3.107 2.005-1.804 3.543-4.723 2.828-7.471-.65-2.499-3.43-3.914-5.85-3.162-1.237.385-2.294 1.233-3.167 2.166a15.383 15.383 0 0 0-2.572 3.768M164.443 57.095c1.097 3.43 3.36 8.742 6.589 8.64 2.798-.09 6.332-7.924 6.666-12.305.284-3.72-.965-8.111-4.305-10.178-3.037-1.88-7.172-.64-8.874 2.422-.87 1.567-1.119 3.425-1.102 5.194.02 2.103.386 4.225 1.026 6.227"/>
        <path fill="#1F2144" d="M168.994 42.385c.597 2.332.75 4.765.938 7.158a157.354 157.354 0 0 1 .174 22.087c-.175 2.803-.426 5.6-.749 8.39-.014.128-.212.099-.197-.029a157.854 157.854 0 0 0 .639-29.555c-.194-2.676-.336-5.419-1.004-8.027-.032-.125.167-.147.199-.024M182.22 60.2a40.103 40.103 0 0 1 4.805-3.804c.106-.073.226.088.12.16-5.971 4.033-10.807 9.673-13.904 16.178a40.147 40.147 0 0 0-2.155 5.565c-.037.123-.22.041-.183-.08 2.094-6.876 6.046-13.137 11.317-18.018"/>
        <path fill="#402885" d="M166.35 70.864a.296.296 0 0 1 .062-.174c.047-.097.134-.146.253-.141 1.865.062 7.518.04 9.383-.023.119-.004.206.044.253.141.034.043.058.1.062.174.064 1.262.094 2.527.085 3.791-.008 1.064.015 2.198-.375 3.182-.339.856-.953 1.386-1.74 1.514-.92.149-1.882.12-2.814.085a.216.216 0 0 1-.063.013c-1.013.039-2.07.088-3.076-.075-.787-.128-1.4-.658-1.74-1.514-.39-.984-.367-2.118-.374-3.182-.01-1.264.02-2.529.084-3.791"/>
        <path fill="#1F2144" d="M149.812 70.437c-1.112.025-4.924.029-7.04.046.009.066.015.133.019.2 2.119-.017 5.916-.02 7.025-.046.13-.004.125-.203-.004-.2"/>
    </g>
</svg>
