<svg xmlns="http://www.w3.org/2000/svg" width="660" height="440" viewBox="0 0 660 440">
    <g fill="none" fill-rule="evenodd">
        <path fill="none" fill-rule="nonzero" d="M0 0h659.908v439.59H0z"/>
        <path fill="#6747C7" fill-rule="nonzero" d="M208.426 391.788c-18.31 0-45.57-16.1-45.57-46.698 0-15.028 10.959-33.281 41.787-43.944 23.38-8.086-11.43-19.195-11.43-59.55 0-21.586 22.167-42.261 79.456-42.261 46.028 0 36.09-28.206 89.668-36.937 28.518-4.645 80.718 12.833 75.082 55.054-4.662 34.932-28.194 36.877-15.087 60.825 4.211 7.663 20.05 19.757 42.107 14.127 28.885-7.359 45.18 6.798 54.672 21.742 18.647 29.495 2.015 77.642-52.459 77.642H208.426z" opacity=".05"/>
        <path fill="#6747C7" fill-rule="nonzero" d="M452.463 264.46c10.123 14.968 42.852-17.98 32.885-30.782-9.968-12.804-45.842 11.628-32.885 30.782z" opacity=".05"/>
        <path fill="#FFF" fill-rule="nonzero" d="M355.756 314.57c1.805 1.789 2.358 4.102 1.294 5.128-1.065 1.026-3.357.388-5.137-1.425-1.78-1.813-2.358-4.103-1.294-5.128 1.065-1.026 3.357-.388 5.137 1.425z"/>
        <path fill="#6747C7" fill-rule="nonzero" d="M405.376 303.842c-.488 4.097-4.482 8.2-9.625 9.684-7.464 2.165-16.644.233-15.122-3.482 1.119-2.732 7.345 1.449 13.986.596 5.798-.74 9.81-5.11 10.502-11.426.41-3.763-1.125-8.17-1.125-8.17s-5.239 13.901-16.878 10.92c-2.599-.663-2.972-3.495 2.712-3.716 2.822-.113 6.49-1.914 8.301-3.78 4.813-4.962 2.25-11.718 2.01-12.32-1.498 2.856-9.144 12.063-11.55 8.795-2.406-3.268 10.641-4.848 7.82-12.26-1.047-2.714-3.47-3.775-5.149-5.51-2.87-2.982-3.61-4.938-3.254-10.138 0 0-1.384 6.1-15.116 8.39-13.733 2.29 5.13 17.467-.283 21.02-5.414 3.555-9.125-7.626-8.247-13.625 0 0-10.021-1.115-6.617 6.607a7.068 7.068 0 0 0-4.078 2.809 11.552 11.552 0 0 0-2.173 8.754 11.616 11.616 0 0 0 4.79 7.663c8.842 6.56 7.182 8.945 6.4 9.416-4.367 2.558-12.343-6.864-14.34-14.968 0 0-6.617 5.552-2.376 12.654-2.605 5.367 2.7 16.697 21.865 22.064 11.429 3.208 18.226 2.04 22.256.066a16.462 16.462 0 0 0 5.546-4.568c4.896-2.666 9.107-5.647 6.689-12.273.12-.089.229-.19.343-.292 4.379-4.055 3.007-11.396 2.713-12.91zm-17.583 18.486c-1.365-1.073-.403-3.75 1.33-4.043 1.864-.322 4.968.775 8.12.596-3.092 3.733-6.857 5.522-9.45 3.47v-.023z" opacity=".3"/>
        <path fill="#FFF" fill-rule="nonzero" d="M378.813 278.54c.367 2.29-.421 4.317-1.769 4.532-1.347.214-2.725-1.473-3.092-3.763s.421-4.318 1.763-4.532c1.341-.215 2.725 1.473 3.098 3.763zM382.025 303.973c1.203.113 2.171.781 2.105 1.485-.066.703-1.119 1.192-2.346 1.08-1.227-.114-2.171-.788-2.105-1.492.066-.703 1.119-1.192 2.346-1.073z"/>
        <path fill="#6747C7" fill-rule="nonzero" d="M390.073 333.89c-4.042 1.975-10.827 3.143-22.256-.065-19.165-5.367-24.47-16.667-21.865-22.064-4.211-7.102 2.376-12.654 2.376-12.654 1.997 8.104 9.973 17.526 14.34 14.968.782-.46 2.442-2.875-6.4-9.416a11.616 11.616 0 0 1-4.79-7.663 11.552 11.552 0 0 1 2.173-8.754c16.274 11.472 28.909 27.308 36.422 45.649z"/>
        <path fill="#FFF" fill-rule="nonzero" d="M359.45 295.708a2.085 2.085 0 0 1-.987 2.767c-.98.364-2.13-.28-2.574-1.443-.445-1.163 0-2.386.986-2.761.987-.376 2.136.28 2.575 1.437zM364.304 341.75l-.746-.596c.03-.036 3.122-4.02 8.229-21.945 1.143-4.001 2.244-8.718 3.416-13.715 2.334-9.977 4.981-21.283 9.162-32.846l.908.322c-4.163 11.509-6.803 22.791-9.131 32.744-1.203 5.01-2.28 9.738-3.429 13.758-5.185 18.217-8.277 22.123-8.409 22.278z"/>
        <path fill="#FFF" fill-rule="nonzero" d="M379.011 293.788l-.938-.227c1.684-6.846 7.254-10.907 8.92-11.992l.53.799c-1.594 1.038-6.912 4.914-8.512 11.42zM374.037 314.11l-.933-.226c1.943-7.961-2.406-11.27-7.014-14.771-3.007-2.296-6.153-4.67-7.29-8.444l.908-.257c1.053 3.477 3.916 5.654 6.954 7.961 4.662 3.519 9.468 7.168 7.375 15.738zM369.068 331.058l-.89-.37c2.207-5.271 5.01-10.256 14.966-13.321l.282.912c-9.558 2.94-12.24 7.722-14.358 12.78z"/>
        <path fill="#6747C7" fill-rule="nonzero" d="M461.046 348.101c1.6 1.998 2.888 14.312-9.624 17.586-15.58 4.031-26.611-15.91-29.619-8.211-3.007 7.698 21.98 15.951 29.836 11.193.751 4.419-4.386 11.33-9.27 11.622-10.406.597-19.447-11.14-21.606-6.41-2.948 6.482 15.08 11.33 21.017 8.557-1.624 3.745-10.539 11.927-21.962 8.706-6.262 3.34-14.256 1.27-21.95-3.673A61.828 61.828 0 0 1 387 378.395c-7.446-7.671-10.837-18.358-9.16-28.874-3.008-7.98-.831-15.105 3.235-20.353a26.137 26.137 0 0 1 4.644-4.628 22.387 22.387 0 0 1 7.675-4.037c2.695-8.432 14.178-9.237 15.526-9.04-12.71 13.942-1.486 37.455 5.57 32.679 4.373-2.982-5.414-7.896-6.822-20.872-1.918-17.454 18.648-17.657 18.648-17.657-8.422 7-8.512 29.095-2.509 29.447 8.157.459-1.937-20.496 7.621-29.549 9.559-9.052 30.503 3.578 30.503 3.578-8.872 7.556 2.93 14.724.283 21.021-3.82 9.1-18.25 3.375-17.281 8.778.968 5.403 15.007.68 18.478-4.216.355 1.64.102 6.077-4.902 10.364-9.709 8.313-24.662-3.482-25.92 3.894-.998 5.916 21.523 7.991 28.458-.829z" opacity=".3"/>
        <path fill="#FFF" fill-rule="nonzero" d="M436.408 334.863c1.66.036 3.008.84 2.966 1.789-.043.948-1.384 1.693-3.044 1.658-1.66-.036-3.008-.841-2.96-1.79.048-.948 1.384-1.693 3.038-1.657z"/>
        <ellipse cx="434.343" cy="314.229" fill="#FFF" fill-rule="nonzero" rx="4.607" ry="2.699" transform="rotate(-73.7 434.343 314.23)"/>
        <path fill="#FFF" fill-rule="nonzero" d="M413.749 370.35c2.057.8 3.35 2.386 2.881 3.578-.47 1.193-2.52 1.503-4.583.704-2.064-.8-3.35-2.385-2.882-3.578.47-1.193 2.52-1.509 4.584-.704zM398.627 344.875a1.718 1.718 0 0 1-2.105 1.04 1.698 1.698 0 0 1-1.172-2.02 1.714 1.714 0 0 1 1.965-1.28 1.853 1.853 0 0 1 1.312 2.26z"/>
        <path fill="#6747C7" fill-rule="nonzero" d="M397.815 372.938v14.51a61.828 61.828 0 0 1-10.87-9.077c-7.446-7.671-10.837-18.358-9.161-28.874-3.008-7.98-.83-15.105 3.236-20.353a26.137 26.137 0 0 1 4.644-4.627 102.916 102.916 0 0 1 12.15 48.421z"/>
        <path fill="#FFF" fill-rule="nonzero" d="M395.685 336.08c-.469 3.577-2.538 6.237-4.631 5.963-2.094-.275-3.405-3.376-2.936-6.942.47-3.566 2.539-6.243 4.626-5.963 2.087.28 3.41 3.375 2.941 6.941z"/>
        <path fill="#6747C7" fill-rule="nonzero" d="M377.983 388.395l-.542-.793c15.64-10.59 37.222-28.534 46.455-44.247 16.843-28.702 31.881-32.799 32.482-32.948l.241.93c-.15.036-15.29 4.175-31.923 32.5-11.976 20.437-41.011 40.7-46.713 44.558z"/>
        <path fill="#6747C7" fill-rule="nonzero" d="M421.178 349.216l-.812-.512c5.624-8.796 12.222-7.341 17.54-6.172 1.38.352 2.79.586 4.21.697l-.036.954a25.538 25.538 0 0 1-4.373-.715c-5.293-1.175-11.266-2.487-16.53 5.748zM397.766 373.213l-.601-.734c11.645-9.541 8.566-18.826 5.847-27.037-.89-2.684-1.733-5.218-1.985-7.586l.956-.101c.247 2.266 1.07 4.77 1.943 7.389 2.7 8.08 6.003 18.134-6.16 28.069zM430.976 334.153l-.764-.596c6.407-8.194 17.619-10.138 24.915-7.752l-.294.906c-7.086-2.278-17.944-.12-23.857 7.442zM416.6 381.287a78.977 78.977 0 0 1-7.218-3.214c-6.015-2.928-10.725-5.242-14.755-1.926l-.602-.734c4.505-3.715 9.739-1.157 15.796 1.79a76.595 76.595 0 0 0 7.116 3.178l-.337.906z"/>
        <path fill="#6747C7" fill-rule="nonzero" d="M303.406 349.11c2.695 8.002-1.401 16.911-8.842 24.884a74.333 74.333 0 0 1-13.053 10.883 41.019 41.019 0 0 1-14.497 6.13c-7.221 1.452-14.7 1-21.69-1.312-10.1 1.885-18.124-2.117-23.532-7.937-4.571-4.926-7.266-11.145-7.747-16.202-9.474-4.872-8.085-18.439-7.586-19.977 13.986 17.693 44.218 9.374 39.983.16-2.616-5.706-10.49 4.694-26.16 3.716-21.137-1.324-17.185-25.41-17.185-25.41 6.617 11.235 32.849 15.875 34.485 8.945 2.214-9.434-24.747-1.914-33.565-14.908-8.818-12.994 10.455-34.903 10.455-34.903 7.17 11.927 18.1-.412 25.04 3.966 10.04 6.315.29 21.998 6.912 21.974 6.623-.024 3.868-17.395-1.245-22.452 2.021-.077 7.218 1.122 11.315 7.848 7.904 13.03-9.161 28.105-.656 31.069 6.81 2.385 13.871-23.501 4.812-33.395 2.695-1.466 17.63-.453 18.936 14.85 1.612 19.022-24.343 27.842-15.808 32.922 3.062 1.825 6.942-.548 10.479-4.806a47.603 47.603 0 0 0 8.625-17.013c1.107-4.175 1.36-8.069.29-10.734 1.804 0 3.843.853 5.701 2.194 3.652 2.63 6.66 7.156 6.214 11.003-1.425 12.278-17.203 20.448-12.03 23.93 7.098 4.77 16.542-15.307 14.436-22.803 4.157 2.618 12.06 14.687 5.913 27.377z" opacity=".3"/>
        <path fill="#FFF" fill-rule="nonzero" d="M239.904 318.225c.385-1.926 1.606-3.315 2.737-3.095 1.13.22 1.738 1.962 1.36 3.894-.38 1.932-1.613 3.316-2.744 3.095-1.13-.22-1.738-1.962-1.353-3.894zM216.384 313.55c2.755 1.336 4.35 3.71 3.567 5.295-.782 1.587-3.657 1.79-6.406.448-2.749-1.342-4.355-3.71-3.567-5.296.788-1.586 3.651-1.789 6.406-.447zM244.096 364.399c1.252.447 1.961 1.652 1.582 2.695-.379 1.044-1.696 1.521-2.953 1.074-1.257-.447-1.961-1.652-1.582-2.696.379-1.043 1.702-1.52 2.953-1.073zM233.047 366.045c4.138 1.27 6.893 4.24 6.147 6.625-.746 2.385-4.71 3.292-8.854 2.016-4.145-1.276-6.894-4.24-6.148-6.626.746-2.385 4.71-3.291 8.855-2.015z"/>
        <path fill="#6747C7" fill-rule="nonzero" d="M303.406 349.11c2.695 8.002-1.401 16.911-8.842 24.884a74.333 74.333 0 0 1-13.053 10.883 41.019 41.019 0 0 1-14.497 6.13v-18.069a102.561 102.561 0 0 1 7.279-37.8 47.603 47.603 0 0 0 8.625-17.014 102.635 102.635 0 0 1 6.016-8.552c3.65 2.63 6.658 7.156 6.213 11.003-1.425 12.278-17.203 20.448-12.03 23.93 7.098 4.771 16.542-15.307 14.436-22.803 4.097 2.648 12 14.717 5.853 27.407z"/>
        <path fill="#6747C7" fill-rule="nonzero" d="M284.206 384.83c-6.96-13.18-20.987-37.236-36.693-50.325-30.677-25.529-32.434-43.866-32.482-44.635l.962-.078c0 .185 1.86 18.755 32.152 43.98 15.844 13.196 29.937 37.377 36.933 50.616l-.872.441z"/>
        <path fill="#6747C7" fill-rule="nonzero" d="M253.15 339.717c-9.27-8.319-6.208-15.695-3.742-21.623a29.764 29.764 0 0 0 1.69-4.77l.938.196a29.579 29.579 0 0 1-1.738 4.944c-2.472 5.963-5.27 12.684 3.495 20.555l-.644.698zM276.699 371.704c-8.969-15.606-20.687-13.9-31.027-12.392-3.368.49-6.55.954-9.407.77l.066-.955c2.755.18 5.883-.28 9.197-.763 10.124-1.473 22.713-3.31 32.013 12.863l-.842.477zM237.173 325.137c-8.421-9.124-8.421-22.565-4.139-30.58l.855.447c-4.169 7.836-3.82 21.009 3.994 29.489l-.71.644z"/>
        <path fill="#FF5C62" fill-rule="nonzero" d="M279.532 375.968c-3.459-5.963.601-11.54 5.353-17.985a90.304 90.304 0 0 0 5.24-7.675l.83.483a92.174 92.174 0 0 1-5.288 7.752c-4.722 6.428-8.451 11.51-5.299 16.942l-.836.483z"/>
        <path fill="#FFF" fill-rule="nonzero" d="M277.457 351.936c1.371-2.248 3.549-3.43 4.866-2.636 1.317.793 1.27 3.25-.102 5.498s-3.55 3.423-4.867 2.63c-1.317-.793-1.257-3.25.103-5.492z"/>
        <ellipse cx="390.799" cy="66.212" fill="#6747C7" fill-rule="nonzero" opacity=".05" rx="18.185" ry="18.326" transform="rotate(-76.72 390.8 66.212)"/>
        <path fill="#6747C7" fill-rule="nonzero" d="M387.493 72.12c-.634.001-1.266-.055-1.89-.167a3.987 3.987 0 0 1-3.272-3.906v-.662h.963v.662a3.018 3.018 0 0 0 2.484 2.982 9.464 9.464 0 0 0 3.429 0 3.02 3.02 0 0 0 2.48-2.774 3.012 3.012 0 0 0-2.113-3.058l-4.451-1.402a3.973 3.973 0 0 1-2.78-4.029 3.983 3.983 0 0 1 3.26-3.657 10.313 10.313 0 0 1 3.778 0 3.975 3.975 0 0 1 3.279 3.9v.662h-.969v-.68a3.024 3.024 0 0 0-2.484-2.982 9.464 9.464 0 0 0-3.429 0 3.026 3.026 0 0 0-2.474 2.778 3.018 3.018 0 0 0 2.107 3.06l4.452 1.402a3.967 3.967 0 0 1 2.797 4.03 3.978 3.978 0 0 1-3.279 3.656c-.622.118-1.255.18-1.888.185z"/>
        <path fill="#6747C7" fill-rule="nonzero" d="M387.011 53.491h1v2.904h-1zM387.011 71.613h1v2.904h-1zM387.011 43.61h1v2.994h-1zM387.011 81.405h1v2.994h-1zM376.789 46.582l.833-.479 1.514 2.59-.833.479zM395.85 79.311l.834-.476 1.508 2.593-.833.477zM369.454 54.232l.481-.827 2.616 1.495-.48.827zM402.467 73.135l.48-.826 2.617 1.494-.48.827zM366.927 63.527h3.02v1h-3.02zM405.045 63.527h3.02v1h-3.02zM369.44 73.787l2.616-1.494.48.827-2.616 1.494zM402.45 54.889l2.618-1.494.48.826-2.617 1.495zM376.79 81.426l1.514-2.59.832.479-1.514 2.59zM395.827 48.68l1.508-2.593.834.477-1.508 2.593z"/>
        <path fill="#6747C7" fill-rule="nonzero" d="M228.373 67.278h36.957v25.01h-36.957z" opacity=".3"/>
        <path fill="#6747C7" fill-rule="nonzero" d="M265.33 67.278l-18.015 15.654-18.942-15.654z" opacity=".5"/>
        <path fill="#FFF" fill-rule="nonzero" d="M247.32 83.558l-9.329-7.71.62-.734 8.692 7.185 17.708-15.385.638.722zM234.927 73.316l.617-.733.988.818-.616.732z"/>
        <ellipse cx="265.323" cy="67.273" fill="#6747C7" fill-rule="nonzero" rx="4.725" ry="4.762" transform="rotate(-76.72 265.323 67.273)"/>
        <path fill="#FFF" fill-rule="nonzero" d="M265.33 72.472a5.246 5.246 0 0 1-4.847-3.212 5.167 5.167 0 0 1 1.14-5.667 5.279 5.279 0 0 1 5.718-1.124 5.2 5.2 0 0 1 3.234 4.809c-.006 2.868-2.352 5.19-5.245 5.194zm0-9.44a4.283 4.283 0 0 0-3.961 2.617 4.22 4.22 0 0 0 .924 4.629 4.31 4.31 0 0 0 4.669.923 4.246 4.246 0 0 0 2.645-3.923c0-2.343-1.914-4.243-4.277-4.246z"/>
        <path fill="#6747C7" fill-rule="nonzero" d="M234.099 95.89h53.258v1h-53.258zM276.819 99.199h1.624v1h-1.624zM265.33 99.199h9.318v1h-9.318z" opacity=".3"/>
        <path fill="#6747C7" fill-rule="nonzero" d="M492.975 179.62h-.969c-.006-4.483-3.67-8.115-8.192-8.122v-.948c4.516-.013 8.171-3.644 8.174-8.122h.969c.006 4.49 3.682 8.126 8.21 8.122v.954c-4.519.007-8.182 3.636-8.192 8.116zm-6.226-8.599a9.17 9.17 0 0 1 5.745 5.695 9.146 9.146 0 0 1 5.738-5.695 9.152 9.152 0 0 1-5.738-5.689 9.176 9.176 0 0 1-5.745 5.69z" opacity=".5"/>
        <path fill="#6747C7" fill-rule="nonzero" d="M228.854 84.399h-.963V66.8h27.712v.954h-26.75z"/>
        <path fill="#6747C7" fill-rule="nonzero" d="M444.92 130.125l-.656-.722a77.14 77.14 0 0 1 1.804-1.622l.644.716s-.674.602-1.792 1.628zM410.007 275.922l-.866-.412a34.287 34.287 0 0 0 1.805-4.395l.914.298a35.195 35.195 0 0 1-1.853 4.509zm3.008-9.226l-.95-.173c.28-1.556.469-3.127.565-4.705l.962.054a41.18 41.18 0 0 1-.571 4.824h-.006zm-.343-9.63a68.51 68.51 0 0 0-.367-4.771l.957-.107c.192 1.711.312 3.285.373 4.824l-.963.054zm-1.028-9.488a177.282 177.282 0 0 0-.837-4.71l.945-.18c.355 1.89.601 3.352.842 4.741l-.95.15zm-1.745-9.428c-.247-1.306-.601-3.023-.854-4.74l.95-.156c.283 1.706.602 3.417.848 4.717l-.944.18zm-1.522-9.541a53.274 53.274 0 0 1-.33-4.83h.962c0 1.484.138 3.04.325 4.77l-.957.06zm.824-9.583l-.962-.108c.096-.87.228-1.729.39-2.558.163-.829.308-1.497.482-2.218l.938.215c-.168.715-.324 1.449-.475 2.188a28.44 28.44 0 0 0-.367 2.505l-.006-.024zm44.08-.286c-1.155 0-2.37-.042-3.61-.126l.067-.954c1.666.114 3.284.15 4.812.108l.03.954c-.433.035-.854.041-1.293.041l-.006-.023zm6.16-.46l-.151-.942a26.31 26.31 0 0 0 4.601-1.145l.325.9a26.72 26.72 0 0 1-4.77 1.211l-.006-.024zm-14.618-.256a44.608 44.608 0 0 1-4.764-1.115l.277-.918c1.53.45 3.084.814 4.656 1.09l-.169.943zm-9.36-2.75a39.233 39.233 0 0 1-4.372-2.182l.48-.823a40.616 40.616 0 0 0 4.272 2.13l-.38.876zm33.186-.35l-.54-.788a14.212 14.212 0 0 0 3.398-3.167l.77.597a15.16 15.16 0 0 1-3.628 3.363v-.006zm-41.63-4.527a40.019 40.019 0 0 1-3.706-3.178l.674-.686a38.734 38.734 0 0 0 3.609 3.1l-.578.764zm-15.694-.596l-.915-.293a48.834 48.834 0 0 1 1.715-4.532l.884.376a48.641 48.641 0 0 0-1.684 4.443v.006zm63.201-2.648l-.926-.274a14.25 14.25 0 0 0 .601-4.133v-.46h.963v.49c0 1.48-.214 2.952-.638 4.37v.007zm-54.485-3.536a38.068 38.068 0 0 1-2.785-3.996l.824-.489a37.64 37.64 0 0 0 2.719 3.888l-.758.597zm-4.903-2.51l-.836-.472a39.002 39.002 0 0 1 2.671-4.067l.77.596a38.034 38.034 0 0 0-2.605 3.936v.006zm58.257-3.418a19.95 19.95 0 0 0-1.912-4.276l.83-.489a20.574 20.574 0 0 1 2.003 4.485l-.92.28zm-58.413-2.385a38.489 38.489 0 0 1-1.696-4.562l.926-.268a37.516 37.516 0 0 0 1.648 4.442l-.878.388zm5.847-1.79l-.692-.667a35.227 35.227 0 0 1 3.651-3.238l.602.751a33.478 33.478 0 0 0-3.55 3.173l-.011-.018zm47.802-3.851a20.322 20.322 0 0 0-3.609-2.982l.524-.8a21.336 21.336 0 0 1 3.795 3.138l-.71.644zm-40.301-1.933l-.482-.828a37.981 37.981 0 0 1 4.41-2.135l.366.888a34.7 34.7 0 0 0-4.27 2.093l-.024-.018zm-16.145-1.735a37.402 37.402 0 0 1-.475-4.836l.962-.03c.052 1.58.207 3.156.463 4.717l-.95.15zm48.585-1.401a18.838 18.838 0 0 0-1.396-.43 41.605 41.605 0 0 0-3.224-.71l.168-.941a43.01 43.01 0 0 1 3.303.727c.493.131.986.28 1.467.447l-.318.907zm-23.616-.447l-.253-.925a42.192 42.192 0 0 1 4.812-.972l.139.942a41.214 41.214 0 0 0-4.674.972l-.024-.017zm14.244-1.289a45.73 45.73 0 0 0-4.812-.089l-.036-.954a46.033 46.033 0 0 1 4.89.095l-.042.948zm-38.563-6.464l-.963-.095c.164-1.605.429-3.199.794-4.77l.938.214c-.35 1.539-.599 3.098-.745 4.67l-.024-.019zm2.147-9.213l-.902-.328a37.44 37.44 0 0 1 1.076-2.594c.277-.596.602-1.223.915-1.849l.854.442c-.325.596-.602 1.192-.89 1.789-.385.858-.71 1.735-1.029 2.558l-.024-.018zm4.373-8.432l-.812-.519a82.164 82.164 0 0 1 2.767-3.977l.776.566a114.754 114.754 0 0 0-2.707 3.948l-.024-.018zm5.672-7.752l-.752-.597a168.2 168.2 0 0 1 3.104-3.709l.734.626c-1.035 1.294-2.1 2.535-3.062 3.727l-.024-.047zm6.286-7.276l-.692-.602a236.122 236.122 0 0 1 3.303-3.53l.698.656a233.32 233.32 0 0 0-3.285 3.524l-.024-.048zm6.653-6.959l-.662-.626a262.88 262.88 0 0 1 3.453-3.387l.668.686a182.544 182.544 0 0 0-3.435 3.375l-.024-.048z" opacity=".3"/>
        <path fill="#FF5C62" fill-rule="nonzero" d="M406.128 282.207l-.77-.596a37.74 37.74 0 0 0 1.371-1.933l.806.525c-.445.668-.908 1.36-1.407 2.004z" opacity=".3"/>
        <path fill="#6747C7" fill-rule="nonzero" d="M186.525 171.331c-11.541-.02-22.38-5.496-29.18-14.74l.776-.561c10.02 13.67 28.497 18.23 43.812 10.812 15.315-7.419 23.04-24.672 18.32-40.91l.926-.262a35.532 35.532 0 0 1-5.848 31.393c-6.811 8.975-17.477 14.258-28.806 14.268zM218.652 121.55c-6.62-14.836-22.689-23.185-38.762-20.138l-.18-.942c16.525-3.154 33.055 5.433 39.844 20.698l-.902.382zM151.872 145.504c-5.43-18.694 5.201-38.263 23.934-44.056l.283.912c-18.222 5.649-28.567 24.682-23.303 42.876l-.914.268z" opacity=".5"/>
        <path fill="#6747C7" fill-rule="nonzero" d="M197.78 111.704c12.288 5.688 18.289 19.633 13.926 32.363-4.363 12.73-17.692 20.164-30.931 17.253-13.24-2.912-22.148-15.235-20.672-28.6 1.475-13.365 12.86-23.487 26.422-23.49 3.889-.002 7.73.843 11.254 2.474z" opacity=".5"/>
        <path fill="#6747C7" fill-rule="nonzero" d="M195.331 116.88c9.62 4.447 14.321 15.358 10.912 25.322-3.41 9.964-13.837 15.787-24.2 13.513-10.362-2.273-17.338-11.915-16.188-22.374 1.15-10.46 10.057-18.385 20.67-18.393a20.952 20.952 0 0 1 8.806 1.933z"/>
        <path fill="#6747C7" fill-rule="nonzero" d="M210.616 147.824l-.86-.435c6.174-11.956 2.102-26.608-9.378-33.74l.511-.806c11.908 7.391 16.133 22.585 9.727 34.981zM164.305 122.003l-.818-.507c6.94-11.159 20.998-15.712 33.246-10.77l-.361.889c-11.814-4.763-25.37-.372-32.067 10.388zM186.525 162.41c-9.5 0-18.304-4.937-23.199-13.01a26.634 26.634 0 0 1-.705-26.413l.854.453c-5.97 11.074-3.058 24.799 6.906 32.55 9.964 7.752 24.103 7.293 33.534-1.087l.601.739a27.144 27.144 0 0 1-17.991 6.768z" opacity=".5"/>
        <path fill="#FFF" fill-rule="nonzero" d="M183.728 147.824l-10.605-10.513 3.405-3.381 7.2 7.138 14.274-14.151 3.41 3.375z"/>
        <path fill="#6747C7" fill-rule="nonzero" d="M258.509 276.655a11.434 11.434 0 0 0-2.226-3.971l.728-.597a12.267 12.267 0 0 1 2.406 4.306l-.908.262zm-5.805-6.893a23.517 23.517 0 0 0-4.289-1.927l.313-.9a23.922 23.922 0 0 1 4.47 2.004l-.494.823zm-8.884-3.143a56.285 56.285 0 0 0-4.716-.751l.114-.949c1.708.203 3.32.46 4.812.764l-.21.936zm-43.165-.286v-.966c1.203 0 2.364-.06 3.525-.144l1.257-.089.066.948-1.251.096a51.501 51.501 0 0 1-3.597.155zm-4.855-.143a61.809 61.809 0 0 1-4.812-.531l.145-.942c1.57.232 3.17.405 4.746.518l-.079.955zm14.503-.412l-.054-.954c1.632-.095 3.236-.183 4.812-.262l.042.954c-1.572.08-3.172.167-4.8.262zm24.025-.334a114.934 114.934 0 0 0-4.812-.19v-.96c1.69.035 3.32.1 4.812.196v.954zm-14.407-.12l-.03-.953c1.673-.054 3.297-.09 4.812-.102v.954c-1.497.012-3.115.048-4.782.102zm-33.72-.554a63.63 63.63 0 0 1-4.687-1.27l.295-.912c1.504.47 3.056.894 4.614 1.252l-.223.93zm-9.252-2.928a49.522 49.522 0 0 1-4.397-2.057l.45-.84a50.27 50.27 0 0 0 4.32 2.015l-.373.882zm-8.566-4.556a34.847 34.847 0 0 1-3.837-2.981l.65-.704a34.778 34.778 0 0 0 3.729 2.916l-.542.77zm-7.152-6.56a19.64 19.64 0 0 1-2.49-4.215l.89-.37a18.706 18.706 0 0 0 2.364 4.007l-.764.579zm-3.67-8.974c0-.334-.035-.674-.035-1.008.003-1.313.189-2.62.553-3.882l.927.262a13.12 13.12 0 0 0-.512 3.62c0 .316 0 .626.03.936l-.962.072zm3.375-8.832l-.812-.513a24.37 24.37 0 0 1 3.044-3.81l.698.662a23.483 23.483 0 0 0-2.93 3.637v.024zm6.467-6.792l-.602-.757a47.68 47.68 0 0 1 3.988-2.755l.512.81a46.805 46.805 0 0 0-3.898 2.678v.024zm8.06-5.057l-.451-.847a80.083 80.083 0 0 1 4.361-2.105l.397.871a71.876 71.876 0 0 0-4.307 2.057v.024zm8.722-3.924l-.355-.888a130.599 130.599 0 0 1 4.542-1.67l.312.907a87.412 87.412 0 0 0-4.499 1.628v.023z" opacity=".3"/>
        <path fill="#6747C7" fill-rule="nonzero" d="M241.654 196.526l-26.966 24.396-7.062-12.046 33.39-12.284a.03.03 0 0 0 .03-.03.03.03 0 0 0-.03-.03l-38.99 2.761-5.516-9.404 45.114 6.429a.119.119 0 1 1 .03.209z" opacity=".5"/>
        <path fill="#6747C7" fill-rule="nonzero" d="M241.017 196.592l-33.39 12.284-9.228 3.417a.914.914 0 0 1-.973-.22.895.895 0 0 1-.182-.972l4.764-11.796 38.99-2.76a.03.03 0 0 1 .018.048v-.001z" opacity=".3"/>
        <path fill="#6747C7" fill-rule="nonzero" d="M214.574 221.674l-7.369-12.56.836-.482 6.761 11.539 20.963-18.963.65.703z" opacity=".3"/>
        <path fill="#FFF" fill-rule="nonzero" d="M217.842 198.5l3.741-.26.068.955-3.742.26zM201.975 198.812l11.334-.804.069.952-11.334.803z"/>
        <path fill="#6747C7" fill-rule="nonzero" d="M524.338 288.403c-2.93 0-5.305-2.355-5.305-5.26s2.375-5.26 5.305-5.26c2.93 0 5.305 2.355 5.305 5.26-.003 2.904-2.376 5.257-5.305 5.26zm0-9.541c-2.395 0-4.337 1.924-4.337 4.3 0 2.374 1.942 4.299 4.337 4.299 2.395 0 4.337-1.925 4.337-4.3.003-2.379-1.937-4.31-4.337-4.317v.018zM246.851 244.239a5.306 5.306 0 0 1-4.905-3.243 5.227 5.227 0 0 1 1.146-5.734 5.34 5.34 0 0 1 5.782-1.143 5.26 5.26 0 0 1 3.277 4.86c-.004 2.901-2.373 5.253-5.3 5.26zm0-9.542c-2.395 0-4.337 1.925-4.337 4.3 0 2.374 1.942 4.3 4.337 4.3 2.396 0 4.337-1.926 4.337-4.3a4.28 4.28 0 0 0-1.264-3.052 4.356 4.356 0 0 0-3.073-1.266v.018zM170.922 303.383h-.963c-.003-4.486-3.668-8.122-8.192-8.128v-.955c4.521-.006 8.186-3.639 8.192-8.122h.963c.006 4.483 3.67 8.116 8.192 8.122v.955c-4.524.006-8.19 3.642-8.192 8.128zm-6.22-8.605a9.176 9.176 0 0 1 5.738 5.695 9.17 9.17 0 0 1 5.745-5.695 9.158 9.158 0 0 1-5.745-5.69 9.164 9.164 0 0 1-5.738 5.69zM480.914 99.885l-13.39 27.61-9.39-7.245 22.3-20.114s0-.054-.03-.042l-29.734 14.401-7.35-5.659 37.462-9.094c.04-.02.09-.01.12.023a.1.1 0 0 1 .012.12z" opacity=".5"/>
        <path fill="#6747C7" fill-rule="nonzero" d="M480.433 100.136l-22.298 20.114-6.16 5.576a.769.769 0 0 1-.825.135.757.757 0 0 1-.456-.696v-10.734l29.733-14.395c.006-.054.03-.018.006 0z" opacity=".3"/>
        <path fill="#FFF" fill-rule="nonzero" d="M468.24 105.48l2.01-.973.422.857-2.01.973zM450.46 114.082l15.715-7.602.423.857-15.716 7.603z"/>
        <path fill="#6747C7" fill-rule="nonzero" d="M467.705 128.235l-9.865-7.604.59-.757 8.92 6.882 13.131-27.08.867.412z" opacity=".3"/>
        <path fill="#FFF" fill-rule="nonzero" d="M388.172 183.002v12.165a93.24 93.24 0 0 1-9.077 40.174 92.164 92.164 0 0 1-6.063 10.848 94.175 94.175 0 0 1-14.184 17.043 94.872 94.872 0 0 1-26.425 17.717c-33.936-15.287-55.724-48.829-55.724-85.782v-12.165h111.473z"/>
        <path fill="#32454C" fill-rule="nonzero" d="M238.334 398.962h178.194v1H238.334zM365.411 406.243h11.621v1h-11.621zM465.636 406.243h3.796v1h-3.796zM407.487 406.243h42.503v1h-42.503zM177.929 406.243h181.647v1H177.929zM461.726 399.076h30.768v1h-30.768z"/>
        <path fill="#C4B8FF" fill-rule="nonzero" d="M529.938 391.794h4.902v1h-4.902z"/>
        <path fill="#32454C" fill-rule="nonzero" d="M120.406 391.794h403.932v1H120.406z"/>
        <path fill="#40327A" fill-rule="nonzero" d="M459.97 391.794h5.299v1h-5.299zM408.636 391.794h43.43v1h-43.43zM210.676 391.794h159.475v1H210.676zM374.548 391.794H396.9v1h-22.352zM197.503 391.794h3.796v1h-3.796z"/>
        <path fill="#6747C7" fill-rule="nonzero" d="M379.101 235.341a93.585 93.585 0 0 1-11.765 18.695 95.124 95.124 0 0 1-8.482 9.184 95.01 95.01 0 0 1-26.419 17.717c-23.017-10.352-40.923-29.374-49.751-52.853a91.701 91.701 0 0 1-2.292-6.882c11.79-3.989 24.06-4.842 34.888-2.385l.325.078c19.85 4.597 20.488 13.184 46.714 16.28 5.6.68 12.662.315 16.782.166z"/>
        <path fill="#6747C7" fill-rule="nonzero" d="M367.336 254.036a95.124 95.124 0 0 1-8.482 9.184 95.01 95.01 0 0 1-26.419 17.717c-23.017-10.352-40.923-29.374-49.751-52.853 11.128-1.67 25.023 2.344 33.384 10.883a106.268 106.268 0 0 0 5.733 5.45c13.744 12.058 29.45 18.505 45.535 9.62z"/>
        <path fill="#FFF" fill-rule="nonzero" d="M388.172 372.938v12.166H276.7v-12.166c.003-36.958 21.803-70.502 55.749-85.782a95.017 95.017 0 0 1 8.469 4.33c29.259 16.871 47.258 47.896 47.255 81.452z"/>
        <path fill="#6747C7" fill-rule="nonzero" d="M276.675 176.311h111.498v6.691H276.675zM276.675 385.104h111.498v6.691H276.675z"/>
        <path fill="#FFF" fill-rule="nonzero" d="M353.356 247.107c-4.98 4.001-7.146 16.429-.24 13.364 6.905-3.065 12.186-12.78 9.949-16.697-1.047-1.873-6.43.721-9.709 3.333z"/>
        <path fill="#402885" fill-rule="nonzero" d="M377.622 385.104h-90.385c16.921 0 30.407-8.635 37.854-20.276a40.301 40.301 0 0 0 6.015-15.862c.247-1.693.372-3.4.373-5.11v-58.739l1.925-.036v58.703c0 13.77 8.078 27.64 21.312 35.29a45.463 45.463 0 0 0 22.906 6.03z"/>
        <path fill="#6747C7" fill-rule="nonzero" d="M358.848 263.232a94.872 94.872 0 0 1-26.425 17.717c-33.936-15.287-55.724-48.829-55.724-85.782v-12.165h51.887c-29.108 24.622-5.3 97.273 30.262 80.23z" opacity=".05"/>
        <path fill="#402885" fill-rule="nonzero" d="M358.848 263.232a95.01 95.01 0 0 1-26.419 17.717c-23.017-10.352-40.923-29.374-49.751-52.853a91.701 91.701 0 0 1-2.292-6.882c11.79-3.99 24.06-4.842 34.888-2.385l.325.078c1.227 27.449 19.652 55.62 43.25 44.325z"/>
        <path fill="#402885" fill-rule="nonzero" d="M358.848 263.232a95.01 95.01 0 0 1-26.419 17.717c-23.017-10.352-40.923-29.374-49.751-52.853 11.128-1.67 25.023 2.344 33.384 10.883a106.268 106.268 0 0 0 5.733 5.45c7.507 16.03 21.07 26.442 37.053 18.803z"/>
        <path d="M307.166 161.7a3.322 3.322 0 0 1 .812-5.402c.233-.912.512-1.811.836-2.695l-9.258 9.034h7.58c.006-.31.012-.626.03-.936zM300.296 165.505h6.827v1h-6.827z"/>
        <path fill="#40327A" fill-rule="nonzero" d="M336.995 139.714l-.884-3.393-1.287 5.087z"/>
        <path fill="#32454C" fill-rule="nonzero" d="M361.206 136.637a18.17 18.17 0 0 0-5.414-6.84c-2.039-1.64-4.06-3.232-4.884-6.19-2.033-7.281 1.167-8.462-1.16-15.66-2.329-7.197-7.694-5.42-10.016-12.624a9.213 9.213 0 0 1-.47-2.564c.305-1.119.506-2.262.602-3.417 0-.203.012-.401.036-.596.447-8.449-4.668-16.214-12.651-19.204-7.983-2.99-17-.52-22.3 6.112a19.306 19.306 0 0 0-.905 22.92l.343.494a19.729 19.729 0 0 0 2.303 2.636 9.49 9.49 0 0 1 .915 2.427c1.756 7.383-3.766 8.575-2.033 15.928l.09.37 1.36-3.578.45.167.47-1.193-.452-.167.343-.9.451.167.41-1.08c.898-2.665 3.492-4.4 6.321-4.228h4.211l-1.01-6.685-.644.096a7.87 7.87 0 0 1-5.978-1.606 7.733 7.733 0 0 1-2.925-5.413l-1.1-12.475a18.955 18.955 0 0 1 9.84 2.254 14.841 14.841 0 0 0 9.216 1.634l.475-.072a2.42 2.42 0 0 1 2.245.869c.538.666.677 1.566.364 2.361a2.406 2.406 0 0 1-1.881 1.493l-.475.072.601 3.876 1.931 12.803c.006.101.006.203 0 .304h8.169v.483l.03-.477c.187.006.374.024.56.054 2.72.356 4.95 2.318 5.63 4.955.032.118.059.238.078.358l.072.507 1.467 11.807-.475.06.127 1.02.475-.06.601 4.836-.475.06 1.04 8.349a4.478 4.478 0 0 1-1.702 4.096 4.16 4.16 0 0 1-.493.328l-11.044 6.56c1.961 1.59 3.532 3.6 4.596 5.88h3.723c19.249-.03 22.112-13.984 18.942-21.307z"/>
        <path fill="#DDD6FF" fill-rule="nonzero" d="M309.259 134.759l.126 2.695-.126-2.695z"/>
        <path fill="#32454C" fill-rule="nonzero" d="M310.594 156.125l4.211 1.443 2.496-1.944 1.582-1.228-.294-.376 4.072-3.173h-11.008l-2.827 2.756a27.963 27.963 0 0 0-.848 2.695 3.39 3.39 0 0 1 2.616-.173zM311.852 162.637h-2.358a3.48 3.48 0 0 1-1.095-.179 3.307 3.307 0 0 1-1.233-.751v.936l4.686-.006z"/>
        <path fill="#32454C" fill-rule="nonzero" d="M333.945 152.064l-13.582 8.003-3.856 2.272c-.364.214-.78.33-1.203.334h5.75v2.868h-48.92c-2.997.02-5.414 2.433-5.414 5.403-.001.401.045.802.138 1.192l14.106 62.615.072-.042h6.261c0-.155-.011-.311-.036-.465l-3.097-20.484-.476.078-.186-1.121.487-.084-.36-2.385-.524.083-5.618-33.919.95-.155.602 3.691-.542-3.613h4.818l9.877 58.392H299.496v-.298l-.186-1.92-.475.042-3.068-32.005.481-.048-.415-4.347-.481.047-.415-4.305.481-.048-1.486-15.504h39.406c3.724 0 6.743-2.993 6.743-6.685v-4.77c-.001-4.97-2.254-9.678-6.136-12.822z"/>
        <path fill="#FDD4C6" fill-rule="nonzero" d="M317.32 155.642l-2.497 1.944-4.21-1.443c-1.5-.52-3.16.07-3.987 1.414a3.318 3.318 0 0 0 .558 4.162c.35.337.77.594 1.233.75a3.48 3.48 0 0 0 1.095.18h5.78c.424-.005.839-.12 1.203-.334l3.856-2.272-3.032-4.401z"/>
        <path fill="#6747C7" fill-rule="nonzero" d="M299.556 162.637l9.276-9.034 2.827-2.756h11.026l3.681-2.856.602.751-7.754 6.03-.3-.376-1.595 1.246 3.044 4.413 13.582-7.991 11.074-6.56a4.16 4.16 0 0 0 .494-.328 4.478 4.478 0 0 0 1.702-4.096l-1.04-8.349-.482.06-.602-4.843.482-.053-.127-1.02-.48.06-1.499-11.814a7.195 7.195 0 0 0-.138-.74 5.746 5.746 0 0 0-4.812-4.245 3.142 3.142 0 0 0-.451-.048h-4.067l-16.24 10.573v-11.056h-2.72c-2.83-.172-5.423 1.563-6.321 4.228l-.41 1.08.452.173-.343.9-.451-.173-.47 1.193.452.167-3.38 8.873a5.793 5.793 0 0 0-.38 2.028c.007 3.165 2.594 5.73 5.787 5.736a5.734 5.734 0 0 0 3.537-1.192l.601.751a6.69 6.69 0 0 1-4.818 1.372l.12 2.695.15 3.149-11.861 14.997 1.852 7.055zm27.712-15.344l1.805-1.425.602.752-1.835 1.425-.572-.752zm6.419-20.275l.938-.238 3.465 13.334-5.907 4.591-.602-.751 3.236-2.517 1.294-5.086-2.424-9.333z"/>
        <path fill="#A796F2" fill-rule="nonzero" d="M308.561 165.505h10.623H308.561z"/>
        <path fill="#FDD4C6" fill-rule="nonzero" d="M317.74 120.655l16.241-10.573h-4.102a5.06 5.06 0 0 0 0-.954 2.601 2.601 0 0 0 0-.304L327.93 96.01l-.601-3.876.475-.072a2.405 2.405 0 0 0 1.884-1.488 2.371 2.371 0 0 0-.358-2.361 2.42 2.42 0 0 0-2.242-.874l-.475.072a14.842 14.842 0 0 1-9.215-1.61 18.955 18.955 0 0 0-9.841-2.254l1.112 12.463a7.734 7.734 0 0 0 2.94 5.417 7.87 7.87 0 0 0 5.993 1.59l.644-.096 1.01 6.685h-1.522l.006 11.05zm-3.242-22.66a2.655 2.655 0 0 1-1.918-.654 2.61 2.61 0 0 1-.885-1.809l5.287-.316c.052.7-.183 1.39-.65 1.917a2.65 2.65 0 0 1-1.834.886v-.024z"/>
        <path fill="#402885" fill-rule="nonzero" d="M307.136 162.637h-7.604l.764 2.868H321.025v-2.868h-9.173z"/>
        <path fill="#FFF" fill-rule="nonzero" d="M298.847 165.505h1.45l-.765-2.868-1.858-7.037-6.046-22.827h-1.443z"/>
        <path fill="#6747C7" fill-rule="nonzero" d="M298.005 165.505h.842l-8.668-32.732h-39.346l7.02 26.53 40.152 6.202zm-24.62-19.714a4.696 4.696 0 0 1 4.264 3.345c.487 1.849-.601 3.345-2.49 3.345a4.672 4.672 0 0 1-4.259-3.345c-.487-1.843.626-3.345 2.484-3.345z"/>
        <path fill="#FFF" fill-rule="nonzero" d="M275.159 152.481c1.865 0 2.977-1.496 2.49-3.345a4.696 4.696 0 0 0-4.265-3.345c-1.858 0-2.971 1.502-2.484 3.345a4.672 4.672 0 0 0 4.259 3.345z"/>
        <path fill="#402885" fill-rule="nonzero" d="M272.145 165.505h25.86l-40.14-6.202 1.636 6.202h12.644z"/>
        <path fill="#6747C7" fill-rule="nonzero" d="M293.24 234.68h-.042l-3.14 1.788c-.53.299-.791.915-.634 1.5.157.584.692.99 1.302.987h8.776v-4.3h-6.261v.024zM281.006 234.68l-.073.041-3.11 1.79c-.53.298-.791.914-.634 1.498.157.585.692.99 1.302.988h8.782v-4.3h-6.267v-.018z"/>
        <path fill="#402885" fill-rule="nonzero" d="M334.824 141.408l-3.237 2.516.596.751 5.907-4.591-3.471-13.334-.932.238 2.424 9.333.884 3.393zM327.263 147.275l1.837-1.428.593.751-1.836 1.428zM318.901 154.396l.301.375 7.754-6.029-.596-.75-3.681 2.855-4.072 3.173zM309.957 134.77a6.69 6.69 0 0 0 4.126-1.407l-.601-.751a5.734 5.734 0 0 1-3.537 1.192c-3.193-.006-5.78-2.57-5.787-5.736.004-.693.132-1.38.379-2.028l3.38-8.873-.45-.167-.452-.167-1.36 3.578-2.026 5.307-.163.46a6.63 6.63 0 0 0 .844 5.656 6.747 6.747 0 0 0 4.949 2.936c.232.013.465.013.698 0z"/>
        <path fill="#FFF" fill-rule="nonzero" d="M308.399 115.986l.343-.9-.451-.173-.452-.167-.342.9.45.167z"/>
        <path fill="#402885" fill-rule="nonzero" d="M329.897 110.082h8.157c.151.005.302.021.45.048a5.746 5.746 0 0 1 4.813 4.246c.059.244.105.49.138.74l1.474 11.807.481-.06.475-.06-1.467-11.807-.072-.507c-.02-.12-.046-.24-.079-.358a6.7 6.7 0 0 0-5.612-4.943 4.44 4.44 0 0 0-.56-.054l-.03.477v-.483h-8.174c.032.317.034.637.006.954z"/>
        <path fill="#FFF" fill-rule="nonzero" d="M345.693 132.785l.481-.06.475-.06-.601-4.836-.475.06-.482.06zM311.695 95.556c.088 1.447 1.343 2.55 2.803 2.463 1.46-.088 2.572-1.332 2.484-2.78l-5.287.317z"/>
        <path fill="#32454C" fill-rule="nonzero" d="M298.829 232.503l.475-.042.481-.048-3.056-31.963-.48.048-.482.048zM295.352 196.198l.481-.047.475-.042-.409-4.312-.481.048-.481.048zM283.664 213.808l.476-.078.475-.077-.187-1.121-.463.071-.487.084zM278.413 176.233l-.95.155 5.618 33.92.523-.084.427-.072-5.004-30.227z"/>
        <path fill="#FFF" fill-rule="nonzero" d="M343.57 268.05c-2.671-1.407-1.24-5.212.932-4.973 4.21.465 2.34 6.702-.932 4.973z"/>
        <path fill="#6747C7" fill-rule="nonzero" d="M388.172 380.893v4.21H276.7v-12.165c.003-36.958 21.803-70.502 55.749-85.782a95.017 95.017 0 0 1 8.469 4.33c-13.131 12.153-21.655 25.44-23.574 42.34-3.02 26.226 9.017 49.465 70.83 47.067z" opacity=".05"/>
        <path fill="#402885" fill-rule="nonzero" d="M377.622 385.104h-90.385c16.921 0 30.407-8.635 37.854-20.276 5.84 6.56 15.236 11.635 29.613 14.253a45.454 45.454 0 0 0 22.918 6.023zM277.156 391.788h-.963v-18.85c.028-21.535 7.435-42.423 21.006-59.239l.751.596c-13.433 16.648-20.765 37.325-20.794 58.643v18.85zM301.361 310.306l-.716-.644a95.142 95.142 0 0 1 14.906-13.286l.565.775a94.086 94.086 0 0 0-14.755 13.155zM383.871 346.539c-7.318-24.534-24.39-45.059-47.291-56.854l.445-.847c23.133 11.915 40.38 32.65 47.773 57.433l-.927.268zM386.945 361.167a89.536 89.536 0 0 0-.806-5.17l.95-.173c.32 1.73.602 3.488.813 5.224l-.957.119zM388.66 391.788h-.963v-18.85c0-2.94-.144-5.91-.421-8.837l.956-.09c.283 2.982.427 5.964.427 8.945v18.832zM331.437 271.229v30.204c.601-.764 1.27-1.521 1.925-2.278v-27.926h-1.925z"/>
        <path fill="#FFF" fill-rule="nonzero" d="M280.687 384.627h61.072v1h-61.072zM343.804 384.644h1.991v1h-1.991z"/>
        <path fill="#402885" fill-rule="nonzero" d="M359.576 384.644h22.906v1h-22.906z"/>
        <path fill="#32454C" fill-rule="nonzero" d="M335.455 280.054l-.427-.859a96.336 96.336 0 0 0 9.24-5.176l.523.8a95.871 95.871 0 0 1-9.336 5.235zM346.198 273.906l-.535-.8c18.596-12.326 32.19-30.781 38.37-52.094l.927.262a94.55 94.55 0 0 1-11.525 25.177 94.423 94.423 0 0 1-27.237 27.455zM385.778 218.257l-.938-.233c.138-.555.277-1.11.409-1.664l.938.215c-.132.572-.27 1.133-.409 1.682zM293.349 249.307a88.83 88.83 0 0 1-2.731-4.114l.818-.501a90.369 90.369 0 0 0 2.707 4.073l-.794.542zM331.672 281.128a95.68 95.68 0 0 1-36.326-29.12l.776-.596a94.603 94.603 0 0 0 35.953 28.863l-.403.853zM388.66 196.502h-.969v-19.714h-62.414v-.954h63.382z"/>
        <path fill="#32454C" fill-rule="nonzero" d="M302.919 182.525h69.566v1h-69.566zM378.025 182.525h2.809v1h-2.809zM319.617 175.834h2.334v1h-2.334z"/>
        <path fill="#402885" fill-rule="nonzero" d="M282.485 132.296h3.122v1h-3.122zM255.591 152.607l-5.371-20.311H277.6v.954h-26.136l5.059 19.112z"/>
    </g>
</svg>
