<svg xmlns="http://www.w3.org/2000/svg" xmlns:xlink="http://www.w3.org/1999/xlink" width="241" height="240" viewBox="0 0 241 240">
    <defs>
        <circle id="a" cx="120" cy="120" r="120"/>
    </defs>
    <g fill="none" fill-rule="evenodd" transform="translate(.5)">
        <mask id="b" fill="#fff">
            <use xlink:href="#a"/>
        </mask>
        <use fill="#EDF5FC" xlink:href="#a"/>
        <g mask="url(#b)">
            <path fill="#EDF5FC" d="M-277 162.647s85.923-166.728 429.633-91.384c228.475 50.084 394.79-135 394.79-135l1.865 492.52-823.351 30.638L-277 162.647z"/>
            <path fill="#6727C7" d="M83.046 147.111c-2.503-.6-4.811-.611-6.903-.184-.043-2.855 1.815-5.875 5.018-5.627 55.42 4.285 73.042 47.51 81.568 69.496 5.828 15.029 14.49 41.503 5.654 58.383-8.018 15.32-30.974 20.127-46.618 13.363l-1.245-12.628s4.814-24.335 4.756-34.56c-.21-35.58-42.23-88.243-42.23-88.243"/>
            <path fill="#2C294C" d="M117.728 61.188s-1.868 15.05-4.34 15.28c-2.476.228-.534-13.498-.534-13.498l4.874-1.782z"/>
            <path fill="#6727C7" d="M116.58 274.743c.834-17.89 5.231-36.044 8.132-53.704 2.77-16.86 5.619-33.707 8.879-50.481.23-1.186.565-2.316.981-3.391a68.171 68.171 0 0 0-1.711-2.67c-6.434-9.49-26.961-26.016-55.827-29.513-31.113-7.965-59.366 1.455-81.326 26.375-7.567 8.588 5.355 14.641 4.205 25.278a7761.598 7761.598 0 0 0-4.369 41.423c-1.355 13.21-4.829 45.663-6.03 58.885-.874 9.609-1.834 26.267.28 37.26 1.595 8.298 47.934 20.101 55.225 19.915 11.728-.299 53.566-13.605 65.188-13.925 13.946-.385.984-33.275 3.737-43.998a1246.4 1246.4 0 0 0 2.604-10.369c.012-.361.015-.721.032-1.085"/>
            <path fill="#6727C7" d="M37.773 139.819c2.502-.6 4.811-.613 6.902-.184.045-2.856-1.813-5.876-5.017-5.629-55.42 4.287-73.043 47.51-81.568 69.497-5.828 15.03-14.489 41.503-5.655 58.384 8.02 15.32 30.975 20.126 46.618 13.362L.3 262.62s-4.814-24.333-4.755-34.56c.207-35.58 42.23-88.241 42.23-88.241"/>
            <path fill="#EF9476" d="M70.004 87.747c7.393-.876 14.787-1.631 22.2-2.185a6.874 6.874 0 0 1 1.831.123c3.784.33 7.461 3.903 5.79 8.704-6.176 17.718-6.533 28.783-10.847 47.104-1.93 8.197-32.795 1.582-32.349-1.764 1.71-12.783 5.11-33.538 7.741-46.191.581-2.796 2.643-5.436 5.634-5.791"/>
            <path fill="#000" d="M74.876 115.489s4.12 7.202 10.251 9.167c3.877 1.241 7.068 1.185 7.068 1.185l1-5.068-18.32-5.284z"/>
            <path fill="#EF9476" d="M65.318 37.464c4.925-5.416 13.251.736 20 .56 7.981-.208 14.337-5.74 18.62.776 5.318 5.533 10.294 11.295 10.562 19.31.49 14.78-.175 39.116-7.033 52.043-5.423 10.222-12.601 13.545-18.011 13.077-9.04-.781-17.433-9.298-22.339-15.051-2.666-3.125-7.04-9.8-8.043-13.26-5.75-19.832-8.419-41.325 6.244-57.455"/>
            <path fill="#2C294C" d="M81.84 90.319c.008 1.422.75 2.57 1.658 2.565.908-.005 1.636-1.16 1.63-2.583-.01-1.42-.751-2.569-1.658-2.564-.907.006-1.638 1.16-1.63 2.582M106.972 90.661c.008 1.423.75 2.571 1.657 2.565.91-.004 1.638-1.16 1.63-2.583-.008-1.42-.75-2.569-1.657-2.564-.908.006-1.637 1.16-1.63 2.582"/>
            <path fill="#3C2459" d="M123.81 49.468c.847-10.006-12.15-16.692-37.868-16.329-5.767.083-6.377-4.032-11.807-4.857-9.604-1.462-15.164 4.946-15.616 12.711-8.64 5.1-9.378 15.283-8.747 24.902.608 9.237 1.135 24.913 8.32 31.713 1.075 1.017 2.173 2.018 2.984.888 2.17-3.024 1.169-6.757 1.619-10.292.56-4.384-1.22-4.427 2.235-9.324.55-.78 1.532-.643 2.221-1.779 3.029-4.981 6.49-11.713 7.448-17.96 12.973-2.039 18.958 6.226 31.299 6.107 16.13-.155 17.485-10.728 17.912-15.78"/>
            <path fill="#EF9476" d="M66.35 78.257c2.694.425 4.62 4.754 1.894 4.38-5.752-.786-4.331 8.137-3.511 9.95 1.284 2.835 2.775 5.548 4.395 8.202 1.41 2.307-1.86 5.003-3.344 2.663-3.06-4.829-6.992-10.92-7.308-16.808-.255-4.73 2.734-9.2 7.875-8.387"/>
            <path fill="#6727C7" d="M91.346 134.75c-.055-.627-.652-1.303-1.359-1.034-.066.024-.127.057-.193.08-.376-.032-.756.09-.96.405-5.817 2.421-10.802 6.124-14.732 11.005-.4-6.742-5.106-11.934-10.842-15.321-1.546-.911-4.498-3.35-6.387-2.153-1.022.65-1.625 2.707-2.101 3.66a241.697 241.697 0 0 0-3.462 7.254c-.569 1.239 1.266 2.325 1.841 1.078a259.169 259.169 0 0 1 3.275-6.816 33.332 33.332 0 0 0-1.305 9.585c.01 1.165 1.515 1.38 2.013.464.554.378 1.404.28 1.622-.55l.14-.538c-.016.219-.013.437-.03.658-.044.6.438.971.953 1.04.356 1.136.978 2.164 1.871 3.086.223.357.489.714.825 1.079.383.416.854.398 1.224.176.431-.145.776-.614.827-1.065.017-.136-.001-.25.007-.379.647.848 1.91.371 2.01-.436.222.296.445.585.666.881.624.843 1.829.448 1.997-.337.067.1.142.193.208.293.393.598 1.075.592 1.54.29.314.375.792.46 1.2.322.053.07.136.087.2.138-.23.969 1.3 1.706 1.999.714.24-.34.503-.657.752-.989.297.221.705.306 1.15.106l2.215-1.002c-1.13.773-.066 2.624 1.09 1.853.537-.358 1.09-.68 1.636-1.018a1.09 1.09 0 0 0 1.58.795c1.27-.606 3.005-1.449 4.1-2.647-.058.419-.1.84-.161 1.26-.15 1.035 1.02 1.617 1.672 1.213.003.073 0 .144.003.217.06 1.15 1.858 1.532 2.113.285.922-4.527 1.204-9.044.803-13.652"/>
            <path stroke="#FFF" stroke-width=".544" d="M157.287 299.295c3.776-13.15 6.901-32.634 6.684-53.502-.108-12.444 1.331-22.526 3.343-30.46"/>
            <path fill="#36344D" d="M269.094 276.865H95.795l33.362-87.185h173.3z"/>
            <path stroke="#000" stroke-width=".854" d="M99.102 90.138l.017 11.787-5.572.634M88.95 105.891s-.728 2.754 7.185 3.601"/>
            <path stroke="#000" stroke-width="1.358" d="M80.251 78.005l9.753-1.548M99.757 77.231l8.358 2.595"/>
            <path stroke="#FFF" stroke-width="1.358" d="M92.86 89.498a9.243 9.243 0 0 1-18.484 0 9.243 9.243 0 1 1 18.483 0zM118.242 88.93a9.243 9.243 0 1 1-18.484 0A9.242 9.242 0 0 1 109 79.689a9.242 9.242 0 0 1 9.242 9.243z"/>
            <path fill="#FFF" d="M92.727 89.535a9.242 9.242 0 0 1-9.243 9.242 9.242 9.242 0 0 1-9.242-9.242 9.243 9.243 0 1 1 18.485 0M118.242 88.93a9.243 9.243 0 1 1-18.484 0A9.242 9.242 0 0 1 109 79.689a9.242 9.242 0 0 1 9.242 9.243" opacity=".097"/>
            <path stroke="#FFF" stroke-width="1.358" d="M92.86 87.66s3.824 1.692 6.54 0M65.478 77.829l9.42 8.596"/>
            <path fill="#FFF" d="M79.055 96.946l8.087-16.154 4.058 2.32-8.456 15.456zM84.285 98.05L91.2 84.856l2.12 3.134-5.704 10.43zM103.975 96.55l8.087-16.152 4.058 2.32-8.454 15.457zM109.205 97.656l6.916-13.196 2.12 3.134-5.704 10.43z" opacity=".556"/>
            <path fill="#FFF" d="M129 153V88h120v65h-84l-12 12v-12h-24z"/>

            <path fill="#CCC" fill-rule="nonzero" d="M180.304 96l-1.202 6.056a19.586 19.586 0 0 0-5.486 3.099l-5.92-2.007-5.696 9.704 4.737 4.045a18.903 18.903 0 0 0-.277 3.103c0 1.06.11 2.09.277 3.103L162 127.148l5.696 9.704 5.92-2.007a19.586 19.586 0 0 0 5.486 3.099l1.202 6.056h11.392l1.202-6.056a19.586 19.586 0 0 0 5.486-3.099l5.92 2.007 5.696-9.704-4.737-4.045c.168-1.013.277-2.044.277-3.103 0-1.06-.11-2.09-.277-3.103l4.737-4.045-5.696-9.704-5.92 2.007a19.586 19.586 0 0 0-5.486-3.099L191.696 96h-11.392zM186 110.4c5.395 0 9.77 4.298 9.77 9.6s-4.375 9.6-9.77 9.6-9.77-4.298-9.77-9.6 4.375-9.6 9.77-9.6z">
                <animateTransform attributeName="transform"
                                  attributeType="XML"
                                  type="rotate"
                                  from="0 186 120"
                                  to="360 186 120"
                                  dur="5s"
                                  repeatCount="indefinite"/>
            </path>
            <path fill="#151421" d="M301.223 192.523H127.925l1.232-2.842h173.299z"/>
        </g>
    </g>
</svg>
